<?xml version="1.0" encoding="UTF-8" standalone="no"?>
<svg
   xmlns:dc="http://purl.org/dc/elements/1.1/"
   xmlns:cc="http://creativecommons.org/ns#"
   xmlns:rdf="http://www.w3.org/1999/02/22-rdf-syntax-ns#"
   xmlns:svg="http://www.w3.org/2000/svg"
   xmlns="http://www.w3.org/2000/svg"
   version="1.1"
   id="svg4400"
   viewBox="0 0 299.99999 66.666669"
   height="18.814816mm"
   width="84.666664mm">
  <defs
     id="defs4402" />
  <metadata
     id="metadata4405">
    <rdf:RDF>
      <cc:Work
         rdf:about="">
        <dc:format>image/svg+xml</dc:format>
        <dc:type
           rdf:resource="http://purl.org/dc/dcmitype/StillImage" />
        <dc:title></dc:title>
      </cc:Work>
    </rdf:RDF>
  </metadata>
  <g
     transform="matrix(1.0179727,0,0,1.0179727,0,-1.1981788)"
     id="g4206">
    <path
       id="path4146"
       style="fill:#232f36;fill-opacity:1;fill-rule:nonzero;stroke:none"
       d="M 294.70339,66.666667 0,66.666667 0,0 l 294.70339,0 0,66.666667 z" />
    <g
       transform="matrix(0.46838294,0,0,0.46838294,-220.79253,-246.14931)"
       id="g6737">
      <path
         id="path4158-3"
         style="fill:#ffffff;fill-opacity:1;fill-rule:nonzero;stroke:none"
         d="m 524.13453,591.99726 c 0,-6.54875 -1.4725,-11.7925 -4.41375,-15.73 -2.9425,-3.94 -7.30875,-5.91125 -13.09875,-5.91125 -1.89875,0 -3.655,0.0713 -5.2675,0.2125 -1.61375,0.1425 -2.94375,0.31125 -3.98625,0.49875 l 0,38.30125 c 1.3275,0.8525 3.0625,1.56625 5.1975,2.13375 2.135,0.5675 4.2925,0.85375 6.4775,0.85375 10.05875,0 15.09125,-6.785 15.09125,-20.35875 m 21.64125,-0.57125 c 0,5.7925 -0.71125,11.06 -2.13625,15.80375 -1.4225,4.74875 -3.51125,8.82875 -6.26375,12.245 -2.75375,3.4175 -6.17125,6.07625 -10.25,7.975 -4.08375,1.89625 -8.78125,2.85 -14.09625,2.85 -2.94375,0 -5.695,-0.29125 -8.25875,-0.85875 -2.5625,-0.56625 -5.03,-1.37375 -7.4025,-2.4175 l 0,28.18874 -21.21375,0 0,-98.66624 c 1.89625,-0.5675 4.07875,-1.11375 6.54875,-1.6375 2.46875,-0.52 5.05375,-0.97375 7.75875,-1.35375 2.7075,-0.3775 5.4575,-0.6875 8.2575,-0.925 2.8,-0.23625 5.4825,-0.355 8.045,-0.355 6.16875,0 11.675,0.925 16.515,2.77375 4.84125,1.855 8.9225,4.465 12.245,7.83375 3.32125,3.3675 5.86125,7.47375 7.6175,12.31375 1.755,4.84125 2.63375,10.2525 2.63375,16.23" />
      <path
         id="path4162-6"
         style="fill:#ffffff;fill-opacity:1;fill-rule:nonzero;stroke:none"
         d="m 618.55228,553.98338 c -4.2825,14.42875 -8.75375,27.9525 -13.41625,40.57625 -4.66375,12.625 -9.75625,24.87 -15.275,36.7325 -1.99625,4.2725 -3.9925,7.905 -5.9875,10.89 -1.99875,2.99125 -4.18625,5.46 -6.56,7.40625 -2.3775,1.945 -5.06125,3.37 -8.05625,4.27375 -2.995,0.895 -6.48625,1.35 -10.4775,1.35 -3.32875,0 -6.39625,-0.30625 -9.2,-0.92625 -2.8025,-0.6175 -5.1075,-1.305 -6.9125,-2.065 l 3.7,-16.94 c 2.185,0.755 4.1325,1.28125 5.84,1.56625 1.70875,0.285 3.515,0.42625 5.415,0.42625 3.79625,0 6.715,-1.0225 8.75875,-3.05875 2.04125,-2.04375 3.77625,-4.86875 5.20125,-8.47375 -4.845,-9.49125 -9.68875,-20.145 -14.5325,-31.96375 -4.8425,-11.81875 -9.40125,-25.08 -13.67125,-39.79375 l 22.49375,0 c 0.95375,3.7025 2.075,7.7125 3.36125,12.03125 1.2875,4.32 2.6475,8.685 4.0775,13.09875 1.42875,4.41125 2.8825,8.7075 4.35875,12.88375 1.4775,4.1775 2.88625,7.9725 4.22125,11.38875 1.2375,-3.41625 2.52375,-7.21125 3.85875,-11.38875 1.335,-4.17625 2.64625,-8.4725 3.93125,-12.88375 1.28625,-4.41375 2.52625,-8.77875 3.7175,-13.09875 1.19125,-4.31875 2.2625,-8.32875 3.21625,-12.03125 l 21.9375,0 z" />
      <path
         id="path4166-7"
         style="fill:#ffffff;fill-opacity:1;fill-rule:nonzero;stroke:none"
         d="m 651.05353,628.87476 c -4.85875,-9.4925 -9.79125,-20.59875 -14.79125,-33.3175 -5.00125,-12.72 -9.7425,-26.5775 -14.2175,-41.57375 l 22.495,0 c 0.95125,3.7025 2.07375,7.7125 3.36125,12.03125 1.28625,4.32 2.62,8.685 4.005,13.0975 1.38125,4.4125 2.7625,8.70875 4.1475,12.885 1.3825,4.1775 2.74125,7.9725 4.07625,11.38875 1.23625,-3.41625 2.57125,-7.21125 3.99875,-11.38875 1.43,-4.17625 2.83625,-8.4725 4.21625,-12.885 1.38125,-4.4125 2.71625,-8.7775 4.0025,-13.0975 1.285,-4.31875 2.4075,-8.32875 3.36,-12.03125 l 21.9375,0 c -4.475,14.99625 -9.2125,28.85375 -14.2075,41.57375 -4.99625,12.71875 -9.92375,23.825 -14.77875,33.3175 l -17.605,0 z" />
      <path
         id="path4170-5"
         style="fill:#ffffff;fill-opacity:1;fill-rule:nonzero;stroke:none"
         d="m 751.11691,583.88076 c -0.0963,-1.79875 -0.40876,-3.5575 -0.93001,-5.265 -0.52374,-1.70875 -1.32875,-3.23 -2.41875,-4.5575 -1.0925,-1.3275 -2.46999,-2.42375 -4.12749,-3.275 -1.66376,-0.85625 -3.72751,-1.2825 -6.19626,-1.2825 -2.3725,0 -4.41249,0.40625 -6.12,1.21 -1.70875,0.8075 -3.13375,1.8775 -4.27125,3.205 -1.13999,1.32875 -2.01875,2.87125 -2.63499,4.62625 -0.61876,1.76 -1.0675,3.54 -1.35126,5.33875 l 28.05,0 z m -49.83375,8.11625 c 0,-6.6425 1.01874,-12.4575 3.05999,-17.43875 2.04,-4.98625 4.72125,-9.1375 8.045,-12.46 3.32,-3.3225 7.14125,-5.83625 11.46125,-7.545 4.3175,-1.70875 8.75501,-2.565 13.3125,-2.565 10.62875,0 19.02875,3.25125 25.1975,9.755 6.1675,6.5 9.25375,16.06625 9.25375,28.6875 0,1.235 -0.045,2.58875 -0.14125,4.0575 -0.0962,1.4725 -0.19374,2.775 -0.28374,3.91625 l -48.12126,0 c 0.47375,4.36625 2.51375,7.83125 6.12251,10.3925 3.60624,2.56375 8.44625,3.8475 14.52125,3.8475 3.89249,0 7.7125,-0.35875 11.46375,-1.07125 3.74499,-0.7125 6.805,-1.58625 9.1825,-2.63375 l 2.8425,17.2275 c -1.135,0.5725 -2.65501,1.14125 -4.55,1.70625 -1.90126,0.575 -4.0125,1.06875 -6.34,1.5 -2.32751,0.425 -4.8175,0.78375 -7.47375,1.0675 -2.6575,0.2825 -5.31625,0.425 -7.9725,0.425 -6.74,0 -12.6,-0.99875 -17.58375,-2.9925 -4.9825,-1.98875 -9.11125,-4.71875 -12.385,-8.185 -3.275,-3.465 -5.69626,-7.5675 -7.2625,-12.315 -1.56625,-4.74625 -2.34875,-9.8725 -2.34875,-15.37625" />
      <path
         id="path4174-3"
         style="fill:#ffffff;fill-opacity:1;fill-rule:nonzero;stroke:none"
         d="m 782.36091,591.42601 c 0,-5.41 0.8775,-10.51 2.6325,-15.30125 1.7575,-4.79625 4.29499,-8.9725 7.62,-12.5325 3.32,-3.55625 7.35125,-6.3825 12.10125,-8.47125 4.74375,-2.08625 10.155,-3.1325 16.23125,-3.1325 3.98625,0 7.63875,0.35625 10.96125,1.07 3.3225,0.71125 6.5475,1.7325 9.68125,3.06125 l -4.4125,16.94 c -1.995,-0.75875 -4.18,-1.425 -6.5475,-1.9925 -2.37625,-0.5675 -5.035,-0.85375 -7.97375,-0.85375 -6.26625,0 -10.9425,1.94625 -14.02625,5.8375 -3.08625,3.89125 -4.62625,9.0175 -4.62625,15.375 0,6.74125 1.445,11.96 4.3425,15.66125 2.89375,3.7025 7.9475,5.5575 15.16249,5.5575 2.56251,0 5.31501,-0.24 8.25751,-0.7175 2.93999,-0.47125 5.64749,-1.23125 8.115,-2.275 l 2.9925,17.3725 c -2.4725,1.0425 -5.55375,1.94 -9.2575,2.7 -3.7,0.76125 -7.7825,1.14125 -12.24375,1.14125 -6.83125,0 -12.72,-1.0225 -17.65501,-3.06 -4.93499,-2.04125 -8.99124,-4.81625 -12.1725,-8.33125 -3.18125,-3.51125 -5.505,-7.6625 -6.97499,-12.45375 -1.47251,-4.79625 -2.20751,-9.99125 -2.20751,-15.595" />
      <path
         id="path4178"
         style="fill:#00a8f8;fill-opacity:1;fill-rule:nonzero;stroke:none"
         d="m 878.25503,617.62588 c 0,4.27 -1.35375,7.5225 -4.0575,9.75 -2.70375,2.22875 -5.765,3.3475 -9.1825,3.3475 -3.41875,0 -6.4775,-1.11875 -9.18375,-3.3475 -2.70625,-2.2275 -4.06,-5.48 -4.06,-9.75 0,-4.27375 1.35375,-7.52375 4.06,-9.75625 2.70625,-2.2275 5.765,-3.3425 9.18375,-3.3425 3.4175,0 6.47875,1.115 9.1825,3.3425 2.70375,2.2325 4.0575,5.4825 4.0575,9.75625" />
      <path
         id="path4182"
         style="fill:#00a8f8;fill-opacity:1;fill-rule:nonzero;stroke:none"
         d="m 936.62665,591.28438 c 0,-6.5475 -1.30624,-11.695 -3.9175,-15.44625 -2.60999,-3.74875 -6.335,-5.62375 -11.1725,-5.62375 -4.84125,0 -8.5925,1.875 -11.2475,5.62375 -2.66,3.75125 -3.98875,8.89875 -3.98875,15.44625 0,6.55 1.32875,11.745 3.98875,15.59375 2.655,3.84125 6.40625,5.76625 11.2475,5.76625 4.8375,0 8.56251,-1.925 11.1725,-5.76625 2.61126,-3.84875 3.9175,-9.04375 3.9175,-15.59375 m 21.64126,0 c 0,5.88875 -0.85375,11.275 -2.5625,16.16 -1.70875,4.89 -4.17875,9.06625 -7.40251,12.53125 -3.22875,3.46375 -7.09749,6.145 -11.605,8.04125 -4.50999,1.90125 -9.56374,2.84875 -15.16125,2.84875 -5.50875,0 -10.51625,-0.9475 -15.0225,-2.84875 -4.50875,-1.89625 -8.37875,-4.5775 -11.6025,-8.04125 -3.23,-3.465 -5.74624,-7.64125 -7.5475,-12.53125 -1.805,-4.885 -2.70375,-10.27125 -2.70375,-16.16 0,-5.88125 0.92501,-11.2475 2.77375,-16.08875 1.85375,-4.84 4.41625,-8.9675 7.69125,-12.385 3.27376,-3.4175 7.16375,-6.0725 11.6725,-7.9725 4.50875,-1.9 9.42125,-2.85 14.73875,-2.85 5.4075,0 10.3675,0.95 14.87625,2.85 4.50626,1.9 8.37625,4.555 11.6025,7.9725 3.22626,3.4175 5.74376,7.545 7.5475,12.385 1.8025,4.84125 2.70501,10.2075 2.70501,16.08875" />
      <path
         id="path4186"
         style="fill:#00a8f8;fill-opacity:1;fill-rule:nonzero;stroke:none"
         d="m 1017.7143,572.77613 c -1.8988,-0.475 -4.13,-0.96875 -6.6925,-1.4925 -2.56,-0.5225 -5.315,-0.78375 -8.255,-0.78375 -1.3313,0 -2.92002,0.11875 -4.77002,0.355 -1.855,0.235 -3.2525,0.49625 -4.2,0.78 l 0,57.24 -21.215,0 0,-70.90625 c 3.79625,-1.32625 8.27875,-2.58375 13.45375,-3.7725 5.17375,-1.18625 10.93875,-1.77875 17.29747,-1.77875 1.1413,0 2.515,0.0712 4.13,0.2125 1.615,0.14125 3.2263,0.33375 4.8388,0.57 1.615,0.2375 3.2275,0.5225 4.8412,0.85375 1.615,0.335 2.9925,0.7375 4.1325,1.20875 l -3.5612,17.51375 z" />
      <path
         id="path4190"
         style="fill:#00a8f8;fill-opacity:1;fill-rule:nonzero;stroke:none"
         d="m 1049.3244,589.00651 c 0,11.86625 4.79,17.7975 14.3775,17.7975 2.185,0 4.2212,-0.28375 6.1225,-0.855 1.9,-0.56875 3.5113,-1.23125 4.8413,-1.99375 l 0,-33.8825 c -1.0438,-0.19125 -2.2788,-0.35625 -3.7025,-0.50125 -1.4213,-0.14125 -3.085,-0.2125 -4.9825,-0.2125 -5.6,0 -9.7763,1.85 -12.5275,5.555 -2.755,3.70125 -4.1288,8.3975 -4.1288,14.0925 m 46.555,30.46875 c 0,12.24875 -3.11,21.33375 -9.325,27.265 -6.2187,5.93 -15.8275,8.89875 -28.8313,8.89875 -4.5574,0 -9.1112,-0.405 -13.6674,-1.21125 -4.5538,-0.805 -8.7813,-1.8725 -12.6738,-3.20125 l 3.7038,-17.79625 c 3.3225,1.33 6.8099,2.3675 10.4649,3.1325 3.6513,0.755 7.8063,1.13625 12.4563,1.13625 6.0762,0 10.3713,-1.3275 12.885,-3.985 2.515,-2.66125 3.7737,-6.0725 3.7737,-10.2525 l 0,-2.70375 c -2.2787,1.04375 -4.6275,1.8275 -7.0487,2.35125 -2.42,0.52 -5.0525,0.7825 -7.8988,0.7825 -10.3487,0 -18.2749,-3.065 -23.7787,-9.18625 -5.5038,-6.12125 -8.2563,-14.68625 -8.2563,-25.69875 0,-5.50375 0.8525,-10.51 2.5613,-15.0225 1.7087,-4.50625 4.2,-8.3725 7.475,-11.59875 3.2737,-3.23 7.2837,-5.72125 12.0313,-7.47625 4.745,-1.7575 10.1099,-2.635 16.0887,-2.635 2.5625,0 5.1975,0.12 7.9013,0.355 2.7037,0.23875 5.3874,0.54875 8.0449,0.92625 2.6563,0.37875 5.195,0.83375 7.6176,1.35375 2.4187,0.52375 4.5775,1.06875 6.4762,1.63625 l 0,62.93 z" />
    </g>
  </g>
</svg>
