<svg xmlns="http://www.w3.org/2000/svg" width="240" height="40pt" viewBox="0 0 180 40" version="1.2">
  <path d="M26.1 38.4a.6.6 0 0 1-.5-.1.5.5 0 0 1-.1-.4l1.4-4 .5-1 .2-.6.6-1.5 1.4-3.3c0-.4-.1-.9-.5-1.4a68.8 68.8 0 0 1-1.4-3.5l-1-2.8-1-2-.8-1.6-1.6-3.4-1.2-2c0-.2.2-.4.6-.4l1 .1a5.6 5.6 0 0 0 2.5 0 8.8 8.8 0 0 1 1.3-.2c.2 0 .4.4.8 1.1a22.3 22.3 0 0 0 1.3 2.4l1 1.7c.4.7.6 1.1.6 1.4l1.1 2.7.4.7.2-.1a.5.5 0 0 0 .2-.3l2-4.5c0-.4.3-1.1.6-2.3a15 15 0 0 1 1-2.4c0-.2 0-.3.2-.4a.7.7 0 0 1 .5-.2h4l.8.2.6.3a4.6 4.6 0 0 1-.3 1.6 16.5 16.5 0 0 1-.8 1.9l-.4.7a34.7 34.7 0 0 0-2.4 5.4 36.8 36.8 0 0 1-1.5 3.6l-.8 1.6c-.2.4-.3.9-.3 1.4l-4 8.6-.3 1c-.3 1.5-.6 2.3-1 2.3l-.8-.3zM38 11.6c-.4 0-.7.2-.8.4a2 2 0 0 0-.3.8l-.2.7 2.5-.8a9.8 9.8 0 0 0 1.5-.5 2 2 0 0 1-.6 0l-.5-.1a1 1 0 0 0-.6-.2h-.2l.3-.3 2.5.1s.2 0 .2-.2l.1-.4h-3.7l.2.4-.2.1a.4.4 0 0 1-.2 0zm-11-.4l-1.3.8-.8.5h.1l.6-.1.6-.2c.1 0 .2 0 .2.2l1.2-.4a1.7 1.7 0 0 0-.3-.5c0-.2-.2-.3-.3-.3zm-3 .2l.2.4c0 .2.2.3.3.4l1.5-.8zm.9 1.8v.6l.5.2.9-.3 1-.7.4-.5c-.5 0-1.1 0-1.8.2s-1 .4-1 .5zm3.2.1l-1.4.5a4 4 0 0 0-1.2.8c.4 0 1 0 1.7-.2.8-.2 1.2-.3 1.3-.5v-.3c-.1-.2-.2-.3-.4-.3zm11.2.6l-.8.6-1.3.7h.5l1-.1c.4-.2.7-.2 1-.2.2 0 .4 0 .5.2l.8-1.8c-.3 0-.5.2-.8.4l-1 .4zM37 14l-1 1.5c-.4.5-.6 1-.6 1.2l.2.2 1-.2a13 13 0 0 0 1.8-.4 2.3 2.3 0 0 0 1-.7 20 20 0 0 1-2.7-.1c0-.2.2-.4.4-.5l1.2-.8.8-.5-.8.2h-.5c-.3 0-.5 0-.8.2zm-11.5 1.3a2 2 0 0 0 .2.4c0 .2.2.3.3.4a4 4 0 0 1 1.1-.6l1.2-.6H27c-1 0-1.4 0-1.5.4zm3.6-.3L27 16a3.9 3.9 0 0 0 1.7-.3l.7-.3a1 1 0 0 0-.2-.5zM30.4 26l.5-.3.8-.5.7-.3c.6-.1 1-.4 1.2-.7.3-.6 1.3-1 3-1.5l.3-.2h-.5l-.6.2h-.3a.8.8 0 0 1 0-.4h.7c.5 0 .9-.1 1-.4l1-2.1H38a7 7 0 0 0-2.5.6h.5a4 4 0 0 1 .8-.1l.7.1c0 .3-.4.6-1.1 1-.7.5-1.3.7-1.6.7a7.4 7.4 0 0 1 1.5-1.2l-1-.1c0 .2-.2.3-.5.3a2 2 0 0 1-.9-.3 8.5 8.5 0 0 1 2.2-.9 7.5 7.5 0 0 0 2-.7h-.9a4 4 0 0 1-.9.2c-.2 0-.3-.1-.3-.2l.8-.3a10 10 0 0 0 .6 0c.6-.1 1-.4 1.5-1 .4-.6.6-1.2.6-1.9l-2.2.8H37a.5.5 0 0 0-.3 0l-.2.1-1.3.7a2.5 2.5 0 0 0-.5 1 8 8 0 0 1-.4.9 4.6 4.6 0 0 1-.7 1l-.5.3h.2v.8l-.2.6a2.8 2.8 0 0 1 .8-.4c.2 0 .4.1.5.3a1.6 1.6 0 0 1-.7.8l-1.6.7-1.3.5c-.2.2-.4.4-.4.7l.8-.2.4-.1.4-.1-.3.3-1 .3a3 3 0 0 0-.9.3l.3.7zm-4.1-9.2c0 .1 0 .3.2.5l.4.3a7 7 0 0 0 1.2-.6 5.8 5.8 0 0 0 1.3-.8 3.3 3.3 0 0 0-.6 0c-.4 0-1 0-1.6.2-.6.1-.9.2-.9.4zm1 1.3c.3 0 .7-.1 1.2-.4l.6-.1.8-.2h.4l-.4-1zm8.2-.5c.2-.2.6-.3 1.4-.4l1.6-.3c.2 0 .3.2.3.4v.2l-2.7 1.4c-.1.2-.4.4-.8.4 0-.3 0-.5.3-.6l2.2-1.1zm-8.1 1.2c0 .2 0 .3.3.6a6.3 6.3 0 0 0 2.4-1.7l-1.8.6-1 .5zm3.3-.6a6.2 6.2 0 0 0-2.7 1.6l1-.2c1.3-.1 1.9-.3 1.9-.6l-.2-.8zm-2.7 2l.3.9a7 7 0 0 1 1.1-.7l1.2-.7-1.3.2c-.6.1-1 .2-1.3.4zm2 .4l-1.5 1h.3l1.6-.3a7 7 0 0 0 1.4-.4l-.5-1zm-1 1.7l.1.5 1.1-.6 1-.7-1.4.3c-.6.2-.9.4-.9.5zm3.4-.5h-.1a3 3 0 0 0-1.3.4l-.8.6H30.5c.3 0 .7 0 1.2-.2s.7-.5.7-.8zm-3 2c0 .4.1.6.3.6.4 0 1-.2 2-.8a9.3 9.3 0 0 0 1.9-1.3l-2.2.6c-1.3.4-2 .7-2 1zm3.8 3.8l-1.1.3c-.6.1-1.1.3-1.6.6-.4.2-.7.5-.7.8 1.3-.3 2.2-.6 2.8-1 .2 0 .4-.2.7-.6l.6-.5a.8.8 0 0 1 .5-.2c.2 0 .4 0 .6.3l1.7-4.2a4.3 4.3 0 0 1-1.2.5l-.2.3a.5.5 0 0 1-.1.2l-3.5 1.7 2.8-.4v.3l-1.3.8-1.4.6-1.2.8.1.1 2-.6zm-.7-3.4l.3-.1h.6l-.3.2a2.1 2.1 0 0 1-.5 0 .1.1 0 0 1-.1 0 .3.3 0 0 1 0-.1zm-.5 2.4v.1h.3l.4-.4c.3-.2.4-.4.4-.5-.3 0-.8.1-1.5.4l-1.2.7.3.4zm1 4.2c0 .4-.2.7-.6 1l-1.7.6-1.2.4c-.3 0-.4.3-.4.5.4-.3 1.3-.5 2.6-.6h.8c.2-.1.5-.5.8-1.2a42.5 42.5 0 0 0 1.4-3.8l-1 .4-1 .6-2.8 1c.4 0 .9 0 1.6-.2a5.6 5.6 0 0 1 1.7-.4h.4l.1.4a29.3 29.3 0 0 1-3 1.5l-.6.2-.5.3 1.7-.4.7-.2 1-.1zm-4 .3l1.4-.6 2-.7.2-.1-.3-.2-3.1 1.2zm-.5 1.4c0 .2 0 .3.2.3l1.4-.5a16 16 0 0 0 1.7-1l-2 .4c-.9.3-1.3.5-1.3.8zM27.3 36l1.3-.4a5.1 5.1 0 0 0 1.1-.6 7 7 0 0 1-2 .1c.2-.3.5-.4 1.2-.4h.5l.8-.4 1.8-1.2V33a.1.1 0 0 0-.2 0l-.3.1-1 .1a8 8 0 0 0-2.4.7c-.6.3-.9.9-.9 1.7zm3.7-1.8l.6.2c.3 0 .5-.3.8-.8l-.6.1-.8.5zm-.6 1.3c.2 0 .3 0 .3.2l.2.1c.2 0 .4-.1.5-.4l.3-.7-.7.2-.9.3-1.1.4h.7l.7-.2zm-3.8 1.9a9.9 9.9 0 0 0 2.6.2l1.5.1s.2-.2.2-.6l.1-1H31l-2.4 1.2h-.3c-.2 0-.3 0-.3-.2a4.3 4.3 0 0 1 1-.8l-.6-.4-1.4.9zM21 9.4a62 62 0 0 0 .7 3.3v.2a19.1 19.1 0 0 1-2 4.8 4.6 4.6 0 0 1-2 2c-.8.2-2 .5-3.5.6-.5.1-2.1.2-5 .2l-.2.6-.1 1 .2.1a43.1 43.1 0 0 0-.5 3.8h.1v.1c0 .4 0 .7-.2 1.2 0 .4-.3.6-.5.6a1.8 1.8 0 0 1-.5-.2l-.5-.1-1.1.1-1.2.2-.8-.3a.7.7 0 0 1-.2-.5 381.4 381.4 0 0 1-.1-2.6v-.3-.4-1.3a15.5 15.5 0 0 1 0-2.5v-.7-.4a1.6 1.6 0 0 1 0-.5 94 94 0 0 1 .2-5V12a25.1 25.1 0 0 1-.1-1.7c0-.7 0-1 .3-1-.1-.1-.2-.2-.2-.5l.1-.3a.8.8 0 0 0 0-.3v-.1a.4.4 0 0 1-.1-.3c.4-.4.5-.8.5-1.3V6L4 5.8l-.2-.2-.1-.3.6-.6.3-.3c.2-.1.2-.2.2-.3l.2.2.2.2c.6 0 1.4 0 2.4-.3l1.1-.1.4-.2a20.5 20.5 0 0 0 2.1.2h.2c2 0 3.9.3 5.5 1l1 .5 1.2.7 1.6 1.5zm-11-4.2l-.4.4c-.2.2-.2.4-.2.5v.2V6l2-1h.2l.4.2c0 .2-.1.3-.3.5l-.3.4.3-.1c0 .2-.2.3-.4.5-.3.2-.4.3-.4.5l1.4-.8.9-.4a9 9 0 0 0 1-.6 2.5 2.5 0 0 0-1-.4 7.2 7.2 0 0 0-1.6-.2c-1 0-1.6.2-1.7.6zm-5.3 4l-.1.5v.8l.1-.1A.7.7 0 0 0 5 10l1-.5c.8-.3 1.3-.5 1.4-.8H7c0-.1.3-.3 1-.6-.3 0-.5-.2-.5-.4v-.1l-1 .4v-.2l.9-.5a8.7 8.7 0 0 1 1.5-.7l-.2-.2.3-.6h-.3l-.2-.1-.5.5-.7.4c-.1 0-.3 0-.5.2a1 1 0 0 0-.5.5l-.1-.1c-.4.3-.6.5-.8.5v-.1l.7-.7 1.5-1a8.6 8.6 0 0 0 1.6-1.1H8c-.6 0-1 0-1 .3l.3.1a4.1 4.1 0 0 1-.6.5h-.4l-.2.4-.4.2c0-.2 0-.6.3-1.2-.5 0-.8.1-.8.3V6a.5.5 0 0 1-.1.4h.2v.1l.1.3-.1.1A.9.9 0 0 0 5 7v.3l.1.1-.1.5-.2.5.8-.2c.3-.1.5-.2.5-.4V8c0 .2-.1.4-.6.6l-.7.3h.8v.3zm2-4.3c-.4 0-.6.2-.7.3l.3.3a.7.7 0 0 0 .2-.3l.1-.3zm11 1.5a4.7 4.7 0 0 0-2.8-1c-.5.5-1 1-1.5 1.3l-1 .9 3-1.5.3.2v.4L14.3 8v.1l.9-.5.6-.4a2 2 0 0 1 1-.3h.2l.3-.3.4-.2zm-6.5-.7l-1 .5A7 7 0 0 0 9 7c-.3.3-.4.5-.4.7h.7l.6.2c0-.3.2-.7.7-1.2l.7-1zm-.8 2.2c.5 0 1 0 1.2-.2l.7-.6c.4-.4.7-.7 1-.8l-2.9 1.4zM13 8c.4 0 .8-.1 1.1-.4a6 6 0 0 0 1-1l-1.7.7-.3.3-.1.4zm7.3 1.2c0-.4-.2-1-.6-1.6-.4-.6-.8-.9-1.2-.9-.2 0-.8.4-1.7 1l-1.6 1.4.7-.4.9-.4.7-.6a3 3 0 0 1 1.3-.2l.3.1-.8.6-.9.6a8.6 8.6 0 0 0-1.7 1.3 5 5 0 0 0 1-.3l1-.4v.2l-.9.4-.7.4c-.2 0-.2.2-.2.4s0 .2.3.2a8 8 0 0 1 1.4-1.1l1-.5.2-.5c0-.2.2-.3.3-.3v.2h.2l.3-.2V9l-2 1.3.2.1a2 2 0 0 1-.6.5l-.6.4.1.1.6-.4a6 6 0 0 1 1-.3v.3c-1.2.5-1.8.8-1.8 1 0 .3 0 .5.3.5h.3a.4.4 0 0 0 .1-.2l.3-.3.7-.5a9.7 9.7 0 0 0 1.5-1c.4-.3.6-.7.6-1zm-5.9-.9c0 .2.2.4.5.6l.5-.6 1-.6 1-.6a11.3 11.3 0 0 0-2.3.7c-.5.2-.7.4-.7.5zm-5.2 8.2c.6 0 1.4 0 2.4-.2l2-.4.7-.2c.5-.1.9-.3 1.1-.5.3-.1.4-.5.4-1 0-.8 0-1.6-.2-2.2a2.4 2.4 0 0 0-1-1.4.7.7 0 0 1 0-.2l.1-.4c0-.2-.2-.5-.7-.8a7.8 7.8 0 0 0-1.6-.7l-1.3-.3a9.6 9.6 0 0 0-2 .3v1.9l.3.6v5.2c-.2 0-.2.1-.2.3zm6.3-7l.2.2.9-.6 1.2-.9h-.2l-1.2.6-1 .7zM4.8 10.8c-.1.2-.2.7-.2 1.5 0 .4 0 .8.2 1.2l1-.7A15.7 15.7 0 0 1 8 11.6v-.2h-.5c0-.4.4-.5 1.1-.5v-.6l-.3-.3-1.8 1a4.1 4.1 0 0 1-1 .7c-.2 0-.4 0-.4-.3.1-.2.3-.3.6-.4l.4-.1.5-.5.1.2.1-.4h-.5V10c.4 0 .7-.1.9-.3l.2-.1.6-.1H8v.1c.3-.1.4-.3.4-.4a.7.7 0 0 0-.2-.5l-2 1c-.3 0-.5.2-.9.4a2.8 2.8 0 0 0-.6.7zm1.5-2.1c.2 0 .4 0 .4.2l-.8.2c0-.3.1-.4.4-.4zM19 10.3l.3-.1a.7.7 0 0 1 0-.2l.5-.1v.3l-.5.3a2 2 0 0 1-.6.2c0-.3 0-.5.2-.5l.1.1zM6 10c0 .4-.2.5-.4.5 0-.3.1-.5.4-.5zm14 5c.3 0 .5-.3.7-1l.2-1.3c0-.7-.1-1.5-.4-2.4l-1.7 1.1-1.3.9-.8.6h.5l.4-.2h.3l.8-.5L20 12l.3.1h.3l-.7.7-1.3.7c-1 .5-1.6 1-2 1.4l1-.4a9.8 9.8 0 0 1 1.5-.6l.2-.1.1.1h.5l.4-.2h.3c0 .3-.3.5-.6.7L18 15c-1 .3-1.4.5-1.4.6h1l1-.3v.2l.7-.3.6-.2zM5.2 14l-.2.4c-.2 0-.3.2-.4.3l-.2.4a24 24 0 0 0 2.7-1.3l.2-.4.2-.3.5-.1c.2 0 .4 0 .5.2l-.1.2a1 1 0 0 1-.1.2H8l-1 .5c-.5.4-.9.6-1.1.6v.3c.2 0 .6 0 1-.3a2.6 2.6 0 0 1 1.2-.3l.3.1c0 .3-.2.6-.4.8L7 16a3 3 0 0 0-1 .7l.1.2 1-.4 1-.7c.4-.3.6-.6.6-.8v-3.5c-.2 0-.9.4-2 1.2a8.2 8.2 0 0 0-2 1.4zm11.6 0c.3-.3 1-.6 1.8-1 .6-.2.9-.4.9-.5l-2.7.9zM7 13.4l.1.1c0 .2 0 .3-.2.3a.7.7 0 0 1-.4.2v-.2zm-1.7 3.9l-.1-.1c.2-.4.4-.6.7-.8a12.6 12.6 0 0 1 1.5-.9c.2 0 .3-.2.3-.3v-.2l-1.6.4a8.5 8.5 0 0 1-.9.2l-.3-.1a17 17 0 0 0-.1 1.9l.1.4.2-.2.2-.4zm14.7-.8l-.1-.2.1-.5-1.7.8-2 1-.4.2h.5v.1A4.3 4.3 0 0 1 14 19l-.3-.2c0-.2.1-.3.3-.5l.4-.2.1.2a1 1 0 0 1 .2-.5l.1.1v.2l.6-.8c.3-.3.6-.4 1-.4l-.4.4.7-.6.9-.6c-.4 0-1 .2-1.5.4a9.5 9.5 0 0 0-1.6 1l-1 .6c-.7.6-1.2 1-1.4 1v-.2s0-.3.3-.5a17.7 17.7 0 0 1 1.5-1 7.6 7.6 0 0 0 1.7-1.1c-.3 0-.7 0-1.3.2l-1 .2-.5.3v-.2l-.6.8-1.3 1.6.1.1h.2l.3-.2c.2 0 .3-.2.3-.2v.2c0 .2 0 .3-.2.4a1 1 0 0 0-.4.3l.5.1.5.2.8-.2 1.3-.3h.8l1-.1.6-.5a.5.5 0 0 1 0-.2l.3-.2.3-.3 1.5-.7.1-.3-1.1.4-1.4.3.2-.3a.6.6 0 0 1 .1-.3.6.6 0 0 1 .4-.1c0 .1 0 .2.2.2l1.3-.4a5.6 5.6 0 0 0 1.3-.7zm-13.5 1l-.8.3-1 .6a4 4 0 0 0 0 1v1l1-.8c.7-.5 1-.8 1.2-.8a.9.9 0 0 1 .3-.5 5.8 5.8 0 0 1 .9-.6l.4-.2.3-.4a.7.7 0 0 0-.3 0 .6.6 0 0 1-.2.2h-.3v-.3l.4-.2.4-.3-.1-.1c-.1 0-.3 0-.5.2s-.4.2-.5.2v.3a.4.4 0 0 1-.2 0 .3.3 0 0 0-.1-.1c-.2 0-.4 0-.6.3h.1a.6.6 0 0 1-.2.2.5.5 0 0 1-.2 0zm-1.2 3.3c.3 0 1-.4 2-1A7.4 7.4 0 0 0 9 18.3c.2-.3.8-.6 1.7-.8l.8-.3c0-.2-.2-.2-.6-.2h-.4l-.4.3a.7.7 0 0 0-.3-.2.9.9 0 0 0-.3-.1 6.9 6.9 0 0 1-1.2.7l-.7.6-.2-.2-.4 1h-.2l-.8.7-.9.8zM17 19.1l.6-.1c.2 0 .3-.2.5-.3l.8-1c-.9.4-1.5.9-1.9 1.4zm-8.7 1c.2-.2.5-.3.8-.3l1.2-.1.3-1 .4-.7c-.3 0-.6.1-.8.3l-1 .7-.5.4-.7.4zM5.6 19c0 .3-.1.5-.4.5-.1 0-.2 0-.3-.2a1 1 0 0 1 .7-.3zm-1 3.7l1.3-.8 1.5-1.1h-.1l-1.9.8a2 2 0 0 1-.6.5v-.3l-.3.1zm3.7-1.4a.3.3 0 0 0 .2-.3h-.2c-.2 0-.6.1-1.3.6l-1 .7h.1zm.9 1zm-1 .8l.1-.7h-.1A14.5 14.5 0 0 0 5.7 24h.5zM7 22.5c-.4 0-.8.1-1.4.4l-1 .5v.7a11 11 0 0 0 1.2-.7 6.5 6.5 0 0 0 1.2-1zm-2.4 2.9a.6.6 0 0 1-.2.5c.4 0 1-.4 2-1.2a14 14 0 0 1 1-.7v-.2l-1.8.5c-.7.3-1 .5-1 .7zm3.3-.3a7.3 7.3 0 0 0 .2-1.1l-3 2 .2.1.5-.4 1-.2c.5-.1.9-.2 1-.4zM7.7 27c.2-.2.3-.6.3-1.1-.4 0-.8 0-1.1.2l-.7.2a5 5 0 0 1-1.5.3v.4h.5l.3.2.3.3.2-.4 1.3-.2.4.1zm0 0" fill="#3575ab"/>
  <path d="M176 27.8l.3.6v.9a4 4 0 0 1-.4 2c-.2.3-.6.8-1.2 1.3-.6.6-1 1-1.2 1l-2.5.8h-4.6a2 2 0 0 1-.7.2l-.7-.3-.5-.4h-.3v-.1l-1-.1c-.2-.1-.3-.3-.3-.6a4 4 0 0 1-1.4-.3c-.6-.2-1-.4-1.1-.7a7.7 7.7 0 0 1-.4-1.5l-.2-1.5c0-.5.2-1 .5-1.4.3-.6.7-1 1-1.3l.6-.3a1 1 0 0 0 .5-.4 3.8 3.8 0 0 1-1.3-1 2 2 0 0 1-.4-1.3c0-.4.2-.8.5-1.2.2-.4.6-.8 1-1a19.9 19.9 0 0 1-1.6-1.9 1.6 1.6 0 0 1-.3-.9v-2.2l.2-.6a11 11 0 0 0 0-.5l.2-1 .7-1.2.4-.8 1.4-1c.7-.6 1.4-1 2-1.2a6.9 6.9 0 0 1 3.7-.2c.3 0 .7.2 1 .4l.8.3a9 9 0 0 1 4.3-1l.2.6.1.6c0 .2.1.3.3.3h.3l.4.3h-.8c-.1.5-.3.8-.5 1l-.7.2a3.5 3.5 0 0 0-1.3.2l1 3.3-.1 1.3-.5 1.3-.4 1.2a13 13 0 0 1-2.2 2.6c-.6.3-1.2.5-1.8.5a20.8 20.8 0 0 1-3.2.1l-.2.1.7.4.9.2c0 .2.4.4 1.3.4h1.2l.6.4 1.3.1a5.2 5.2 0 0 1 2.4.8c.8.4 1.2.7 1.2.9v.2a.4.4 0 0 0-.1.1l.3.5.4.4a.4.4 0 0 0 .1 0l.2-.1a2.8 2.8 0 0 0-.5 1.3l-.2-.4a1.2 1.2 0 0 0-.4 0l-1.3.4-1.2.7a15 15 0 0 0 2-.2h.6c.2 0 .2 0 .2.2l.2-.3a.5.5 0 0 1 .3-.2zM171.2 11a4.6 4.6 0 0 0-.1.9l.8-.3.8-.7.7-.6h.2s0 .2-.2.3a1.9 1.9 0 0 0-.4.4l.3.3c0-.2.1-.3.3-.4a3 3 0 0 1 .5-.2l.3-.1a.7.7 0 0 0 .3-.3.7.7 0 0 0-.5-.3c-.5 0-1 0-1.3.2-.4.2-1 .4-1.5.8zm-3.2-.9a3.7 3.7 0 0 1-1 .2 4.8 4.8 0 0 0-1.4.4c-.3.1-.5.4-.5.9.1 0 .3 0 .5-.2l-.2-.1V11h.6v.2a.5.5 0 0 1 .1-.1h.2l.2.1.5.2a.8.8 0 0 0 0-.3.8.8 0 0 1-.1-.3h.4c.2 0 .4-.2.7-.7zm.3.7l-.3.5h.5l1.7-.1a7 7 0 0 0-.8-.7l-.4.3a.8.8 0 0 1-.5.2.2.2 0 0 1-.1 0 .2.2 0 0 1 0-.2zm6.3 0c-.4 0-.6 0-.9.2.1 0 .4 0 .7-.2v.2l-.1.4-.1-.3-1.5.6v.1h.1l1.8-.2zm-9.9.6l-.6.1a1 1 0 0 0-.5.2 2 2 0 0 0-.3.5c.2 0 .3-.2.4-.3v.1l.6-.2.6-.2zm3.3.3l.1.5c0 .2.2.3.3.3l.7-.3.9-.4zm2.8.6c-.1-.2-.3-.3-.7-.3l-.6.3-.5.3h.4l.6.1.4-.4a.4.4 0 0 0 0 .1h.4zm-5.9-.1a7.1 7.1 0 0 0-2.2.5h1c1 0 1.7 0 1.9-.4a.8.8 0 0 1-.4 0 .6.6 0 0 0-.3-.2zm6.8.5l.3.4.3.3c0 .2-.1.3-.4.4-.2.2-.5.3-.9.4l-.4.2c-.2 0-.4.1-.4.3l.2.1 1.1-.1a.9.9 0 0 1 .6.1l.5-.2.4-.2-.1-1c-.1-.6-.4-1-.7-1l-.3.2a.7.7 0 0 1-.2.1zm-9.8 1.7h-.1a.3.3 0 0 0-.1.3h1.6v-.2h.3a8.2 8.2 0 0 0 .6.2s0-.2.2-.3l.2-.2a.1.1 0 0 1-.2 0 .3.3 0 0 1 0-.2c0-.2.2-.4.6-.6.3-.1.5-.3.5-.6h-.2l-1.3.7-1.1.6c-.3.2-.7.2-1 .2zm.6-1.4a7 7 0 0 0-.7.9 5 5 0 0 0 1.4-.3c.6-.2 1-.4 1-.6h-.8c-.5 0-.7 0-.9.2zm7.5.3h.8l-.8-.1zm1 .5h-.1a.3.3 0 0 0-.2-.2 4.7 4.7 0 0 0-1 .2v.7l1.3-.7zm-1.6 1.7c0-.3-.2-.7-.5-1.2a1.3 1.3 0 0 0-1-.6c0 .3-.2.4-.3.4l-.4-.2-.6-.1c-.3 0-.5.1-.8.4a4.8 4.8 0 0 0-.8 1.9l.1 1.3c.1 0 .2.1.2.3l.3.4c.1.2.3.3.6.3a7 7 0 0 0 2.2-1c.6-.5 1-1.1 1-1.9zm0-.7l.1-.1v-.5a2.8 2.8 0 0 0-.1-.4h-.2v.4l.2.6zm-7 .1c-.8 0-1.3.1-1.3.3h.3v.6l.9-.4.8-.5zm10.4 0a18 18 0 0 0-2.7.2v1l1-.6 1.3-.3c.2 0 .3.1.3.3zm-8.8.8v-.3l-.1-.2a5 5 0 0 0-2 .7h1.4l.7-.1zm9.4.3v-.5l-.3-.2v.4l-.4.6a2.8 2.8 0 0 1-.6.3l-.6.5c0 .2-.3.3-.5.5l-.6.2v.2l.6-.1h.5l-.3.4h-.9l-1 .2-.7.5a16.3 16.3 0 0 1-.7.6c.5 0 1.2-.2 2-.6.4-.3.8-.4 1-.4l.2.1.4-.4.4-.3-.1-.2c.7-.2 1-.5 1.3-.9l.3-.9zM161 17.5a15.3 15.3 0 0 0 2.4-1c.3-.1.5-.3.5-.5l-1.2.2-1.3.2a.4.4 0 0 1-.2 0v-.2c-.2.1-.2.3-.2.7v.2zm8.7-.3l-.8.7.4.3c0-.2 0-.3.3-.4l1-.5.6-.3.7-.5c.2-.2.3-.3.3-.5l-1.4.3c-.7.2-1 .4-1.1.6h.6l-.3.3-.3-.1h-.1zm-8.6 1l.1.4.3.1h.2l1-.3c.5 0 .8-.3 1-.5l.2-1.3-1 .5-.4.1-.4.2a1.3 1.3 0 0 0-.3.3l-.2.4a.4.4 0 0 1-.3 0 .3.3 0 0 1-.2 0zm1.3-.2c-.3 0-.4 0-.4-.2l1-.1a.7.7 0 0 1-.6.3zm7.7 1.4c.9 0 1.6 0 2-.3.6-.2.8-.7.8-1.4 0 .3-.3.6-.7.8a8.5 8.5 0 0 1-1.2.5l-1 .3v.1zm-8.4-.2c0 .3.2.6.6.8.7-.3 1.2-.6 1.6-1l.4-.5-.3-.2h-.4c-.2 0-.6 0-1.2.3l-.8.6zm3 .2l.2.1c0 .2-.1.3-.3.4l-.7.2a6 6 0 0 0-.6.2l-.3.3.2.1a.6.6 0 0 0 .2.2c.3 0 .7-.2 1.3-.6l.8-.3 1.2-.7V19l-.8.4a2.1 2.1 0 0 1-.7.3v-.3l.1-.3a.2.2 0 0 0-.1 0 .4.4 0 0 0-.2-.1h-.2a.7.7 0 0 0-.2.2l-.2-.1c-.1 0-.4.1-.7.4l-.5.4.8-.2.6-.3zm1.4.6a1 1 0 0 1-.4.2l-.3.2-.9.5a.9.9 0 0 0-.3.7 18.9 18.9 0 0 0 3.4-2.3zm5.8.2l.1-.5c-.1 0-.3 0-.7.3l-.6.3-1.9.9h-.2l-.5.2a4.4 4.4 0 0 1-.9.4v-.2a.4.4 0 0 1-.2.1.6.6 0 0 1-.2 0c-.1 0-.2 0-.2-.3l-3 1.4-.6.2-.5.3a5.6 5.6 0 0 0 1.5-.3.8.8 0 0 0 .3-.3c0-.2.2-.3.4-.3.3 0 .5.2.6.3.2 0 .3-.2.5-.5a14.6 14.6 0 0 0 3.5-.1c.5-.1.9-.3 1.2-.6l1.4-1.3zm-6.4 1.4l.8-.5a10.2 10.2 0 0 1 2.1-.8v.4l.3-.3.3-.3a3 3 0 0 1-.7-.1 2.5 2.5 0 0 0-.6-.2l-.9.4a6.7 6.7 0 0 0-1.3 1.4zm-1.8.4l.2-.2a2.6 2.6 0 0 1-.3-.2 1.1 1.1 0 0 0-.4-.2c-.2 0-.6.3-1.1.9-.5.6-.8 1-.8 1.3zm-1.7 2.7l.5-.3.5-.2.2.2a1 1 0 0 1 .4-.5l.4-.4-.5.2v-.1a.3.3 0 0 0-.2-.1c-.2 0-.6 0-1 .3l-.7.3c.2.2.4.4.4.6zm4-.5c-.6 0-1 .1-1.7.4h-.6a3 3 0 0 1-.7.2v.2l.2.1h.2l.2-.1h.2a.5.5 0 0 1-.2.2.7.7 0 0 0-.1 0l.1.2.1.1v.3a.8.8 0 0 0 0 .2s.2-.1.2-.3c.4-.4.8-.7 1.4-1l.4-.1.2-.4zm.7.3a6.7 6.7 0 0 0-1.4.6c0 .2 0 .3.2.4 0-.2.1-.4.4-.5l.8-.2zm-1.8 1.5a14.2 14.2 0 0 0-3 .8h2.7a5.6 5.6 0 0 0 1.8-.6 8.1 8.1 0 0 0 2-1.5h-.6l-2 .7c.3 0 .5.2.7.4l-.7.2h-.9zm4.1-1a3.4 3.4 0 0 0-.6.2l-.5.3v.2l.6-.1.4-.2h.2v.1c0-.2.2-.3.6-.3l.7-.1a6.7 6.7 0 0 0-1.4-.2zm1.6.3c0 .2 0 .4-.3.5l-.6.2a3 3 0 0 0-.6.2l-.2.3 1.4-.4 1.4-.5h.3l-.1.4h.3l-.8.5-1 .4-.8.4a34.1 34.1 0 0 0 3-.4l-2 .7.1.2c.4 0 1-.2 1.8-.5l1.2-.6c.1 0 .2 0 .2-.2l.1-.2c0-.3-.4-.6-1.2-.8a8.7 8.7 0 0 0-2-.3zm-4.7 1.9l.3-.1a.7.7 0 0 1 .3-.1v.3l1.6-.8c1-.5 1.4-.8 1.4-.9a8 8 0 0 0-2 .6c-1 .3-1.6.6-1.7 1zm2.2 0h.3l.3.1.4-.2.2.3.1-.3.8-.3c.5-.2.8-.5 1-.7l-1.4.5zm-2.6 0V27h-.2-.4c-.2 0-.2.2-.3.3zm8.8 0c-.2 0-.2-.1-.3-.2l-2.4 1-.2.1h1.2v.2l-.3.1a.3.3 0 0 0-.3.2l.2.1.3.2a53.2 53.2 0 0 0 1.7-.9h-.3v-.2H174.5c.4 0 .6-.1.6-.4 0-.2-.2-.4-.5-.4a.4.4 0 0 0-.1 0l-.2.1zm-12.7 0a.2.2 0 0 0-.2.1v.1h.4a.2.2 0 0 0-.2-.1zm5.6 4h2.3c1.5-.1 2.2-.5 2.2-1.2a.8.8 0 0 0 0-.3l-.1-.1h-.2l-.1-.6a.7.7 0 0 0-.5-.2.8.8 0 0 1-.4-.2.5.5 0 0 1-.1-.3.8.8 0 0 0 0-.2l-.3-.1a24.4 24.4 0 0 1-3-.2l-1.3.3-1.3.2c0 .1 0 .2.2.2l.2.2-.3.3c-.2 0-.2.1-.3.2l-.2.6c0 .1.1.2.4.2.2 0 .3.1.3.2v.3a.5.5 0 0 1-.1.2c0 .2.4.2 1.2.2.8 0 1.3.2 1.4.3zm-2.2-3.4c-.2 0-.3 0-.4.2a.8.8 0 0 0 .1 0l.2.1h.2v-.3zm-4.6 1.3A21.5 21.5 0 0 1 162 28h-.2c-.4 0-.7 0-.9.3a1.8 1.8 0 0 0-.5.9zm2.6-.4l.3.1a1 1 0 0 0 .1-.3l.1-.4-1 .3-1 .3v.2h.8c.2-.2.5-.2.7-.2zm-2.5.7c0 .2.1.3.3.3l.8-.2.7-.4h-.4c-.9 0-1.4.1-1.4.3zm14.2-.1h-.4l-.4.3h.1l.4-.1c.2 0 .3-.1.3-.2zm-.3 1.3a.6.6 0 0 1 .4-.3l.3-.1.5-.3.1-.5c-.4 0-1 .2-2 .6-1.1.4-1.6.6-1.6.8 0 .1 0 .2.2.2.1 0 .4 0 .7-.2l.7-.2c.1 0 .2.1.2.3l-1 .2-.6.5h.7l1-.1h.7c0-.2.1-.3.3-.4.1 0 .2-.2.2-.5l-1 .2.1-.3zm-11.3-1l-.8.1c-.4 0-.6.1-.7.2l-.2.1h1.8zm9.5.6c.1 0 .2 0 .2-.2.1-.2.2-.2.4-.2h-.6zm-11.6.6c.2 0 .4 0 .5.3l.2.2a8.3 8.3 0 0 0 2-.2v-.2h-1v-.1l-1 .2.3-.3h.7a2 2 0 0 0 .6-.2v-.2l-2.3-.1zm10.3.7h-.9a1 1 0 0 0-.4.4.8.8 0 0 1-.4.3l.3.1c.6-.4 1-.7 1.4-.8zm-4.1 2.1l.7-.5c.5-.3.9-.6 1-1h-1.5c.3 0 .5-.2.8-.3a3.8 3.8 0 0 0-.6 0 5 5 0 0 0-.9 0 1.4 1.4 0 0 0-.6.4l1-.1v.3h-1.3v-.2c-.2.4-.4.6-1 .6l-.3-.3h.1l.2-.1c0-.2 0-.2.2-.2h.4c.1 0 .2 0 .2-.2s-.1-.3-.3-.3l-1 .1-1.4.1a2 2 0 0 1-1-.1l.3-.2h.2-1.2c0 .2.3.5 1 .8a17.3 17.3 0 0 0 3.3 1.1l.7-.1.8-.5.8-.4.7-.2c0 .2 0 .3-.2.4l-.7.2c-.3 0-.5.2-.5.3l.1.4zm4.8-1.8a3 3 0 0 0-.3 0 .5.5 0 0 0-.3.1h.2l.3-.1zm-2.6 1.7l2.7-.3c1-.3 1.8-.6 2-1.1h-.5a20.3 20.3 0 0 0-3 .5c-.6.2-1 .4-1 .6v.2a.3.3 0 0 1-.2.1zm-1.5.2c.7 0 1.1-.2 1.2-.5h-.2c-.2 0-.5 0-.8.2l-.6.3zm-11.4-12.4l.1 1.6.1 1.3.3 3.6c0 .5-.1.7-.3.7H155a28.8 28.8 0 0 0-1.5 0H151.9a.5.5 0 0 1-.2 0h-.1v-6.6a2.7 2.7 0 0 1-.3-1.1v-1l-.7-2.3-1-2.1c-.5-.6-1.4-1-3-1-.3 0-.6.3-.8.7-.2.4-.3 1-.3 1.4l.3.3h.3l-.2.4-.2.3v.6l.2.6.1.8v.7l.1 1.8V27c-.1.7-.3 1.1-.5 1.1h-1.2a10.2 10.2 0 0 0-3 0l-1 .2c-.3 0-.5 0-.6-.2a3 3 0 0 1-.1-1.1v-1.2a31.3 31.3 0 0 1 0-3.2 1.4 1.4 0 0 0 0-.2v-11l.3-1.9 3.5-.1.1.8c0 .4.1.6.2.7.6-.4 1.3-.8 2.2-1.1.9-.4 1.7-.5 2.4-.5 2.4 0 4 .5 5.2 1.6a7.6 7.6 0 0 1 2.3 4c.3 1.7.5 3.7.6 6.3zM148.8 10c-.6 0-1.4.2-2.5.6a13.5 13.5 0 0 0-2.1.8c.7 0 1.3-.2 1.8-.3l1-.3a13.5 13.5 0 0 1 2.6-.5l-.4-.1a2.7 2.7 0 0 0-.4-.2zm-8.1.5v.7l-.1.8c0 .5 0 .8.2 1l1.1-.8 1-.7v-.2a7.8 7.8 0 0 0-.9.3l-.8.3a.2.2 0 0 1-.1-.2l1.5-1.2zm10.7.6a.7.7 0 0 0-.3-.3.8.8 0 0 0-.4-.1l-.8.2-.7.6a5 5 0 0 1 2.2-.4zm-6.5.7c-.1.3-.4.7-1 1.1l.4.2c0-.2.4-.4 1.3-.8a6.9 6.9 0 0 1 1.6-.5l.9-.3 1-.6a4.2 4.2 0 0 0-1.5.2l-1.3.6-.9.4h-.1-.2l-.2-.3zm2.8 1.6h.1l.1-.2a16.9 16.9 0 0 0 2.6-.6l1.5-.4 1-.4c-.4-.2-.8-.3-1.3-.3l-1.8.7-1.2.5a6 6 0 0 1-1.2.4v.2l.2.1zm-3.2.5l2-.7 2.7-1.2h-.3a7.5 7.5 0 0 0-2.4.6 5.8 5.8 0 0 0-2.2 1.3zm-.7-1.6c-.3 0-.8.2-1.7.7-.9.5-1.3.8-1.3.9v.1l.5-.1 2.5-1.4zm10.2.6c0-.2-.1-.3-.2-.3a.4.4 0 0 0-.3-.1 2 2 0 0 0-.8.2c-.4.2-.5.4-.5.6l.8-.2 1-.2zm-5.4.7c0 .1.2.3.5.3l.4.2 2-1.3h-.1c-.2 0-.6 0-1.4.3l-1.4.5zm1.7.9c0 .3.1.5.3.5a18.7 18.7 0 0 0 3-1.4h-1c-.2 0-.5 0-1 .3a4.7 4.7 0 0 1-.6.4l-.7.2zm-7.3-.8l-1.2.4c-.8.3-1.1.5-1.1.6v.8l1-.8a24 24 0 0 1 1.6-1h-.1zm10 1l1.1-.1c.3-.2.5-.4.5-.6l-1.2.1c-.5.2-.7.3-.9.6h.5zm-12.3 6.3c0 .3 0 .5.3.5l1.4-.6a7 7 0 0 0 1.4-.7c-.3 0-.7.1-1.3.4l-1 .3c-.2 0-.2-.2-.2-.4l3.3-1.9.1-.1-1.2.4a5.7 5.7 0 0 1-1.8.4h-.2v-.2c0-.2 0-.4.2-.6l1-.4c.5-.1.8-.3 1-.6l-1.2.3-1.2.4c-.2 0-.3-.1-.3-.2s.5-.6 1.7-1.3a27.4 27.4 0 0 1 2-1l-1 .1-.5.3c-.6.3-1 .5-1.4.5a.3.3 0 0 1-.3-.1l-.1-.2.7-.4 2.5-1.4.1-.1c-.3 0-.6 0-1 .2-.3 0-.7.3-1.1.5l-1 .4c-.2.2-.5.3-.8.3v2.8a48.3 48.3 0 0 0-.1 2.4zm10.2-5l.3.8.5.7 2.9-1.4-1 .2a9 9 0 0 1-1.3.3l-.2-.2a1 1 0 0 1-.2-.2l.4-.4 1-.5 1-.3.1-.2a9 9 0 0 0-2 .4c-1 .3-1.5.5-1.5.7zm4-.7s-.3 0-.8.3a8.2 8.2 0 0 0-1.1.4l1-.2 1-.3zm.3 1.5c0-.2 0-.3-.3-.3l-1.3.6h1l.6-.3zm-11.5.3s.2 0 .3-.2l.4-.2v-.1c-.5.1-.8.3-1 .5zm8.2 1c0 .3 0 .5.2.5s.5 0 1-.3l.8-.4.8-.4v-.2a9.9 9.9 0 0 0-1.7.3c-.8.1-1.1.3-1.1.5zm-7-.4h-.2c-.2 0-.6 0-1.2.3l-.8.5c.2 0 .6 0 1-.2.5 0 .8-.1 1-.3zm10.8.2a3 3 0 0 0-1 .2c-.4.1-.6.3-.7.5h1.7zm-3.5 1.4c.2.6.3 2 .3 4l2.2-1 .2-.2-.7.1h-.8c-.2 0-.2 0-.2-.2a.5.5 0 0 1 0-.2.7.7 0 0 1 .1-.2l2-1.2h-2.5v-.3a.9.9 0 0 1-.1-.3c0-.1.1-.2.4-.2l.7-.2a.9.9 0 0 0 .6-.5zm-8 .6l.4-.2.2-.4-2 .7zm11.2-.6a9.2 9.2 0 0 1-2 .6h.6c1 0 1.4 0 1.4-.2zm-10.5 1l-3 1.2h.6l1.4-.3h.6l.4-.2zm10.2 1.4c.4 0 .6 0 .6-.2a1 1 0 0 0-.2-.3l-.1-.2a3.6 3.6 0 0 0-1.1.6l.2.1h.6zm-13.4 3.6a.2.2 0 0 1-.2-.1l-.1-.2.7-.4a42.8 42.8 0 0 1 2.8-1.5l.2-.2-2.7.8h-.6a3 3 0 0 1-.5.1h-.3l.1-.5.3-.2 2.4-1.3c.2 0 .3 0 .3-.2l-1 .2-1 .2-1.1.3-.2.4v3.4l2.7-1.1v-.2c-.3 0-.6 0-.9.2l-.4.2h-.5zm.5-2l.7-.2c1.5-.3 2.2-.6 2.2-.8 0-.3-.1-.5-.4-.5l-2.3 1.3zm13.3-.7l-.8.1-.3.2h-.5l.1.2.2.1c.8 0 1.3-.2 1.3-.6zm0 .8a19.5 19.5 0 0 1-3 .6l.2 2.9a8.3 8.3 0 0 1 3-1.8v-.1l-2.4.4h-.1v-.4l1-.7a9.5 9.5 0 0 0 1.4-1zm-11.7 1l.8-.2.6-.2-.1-.5a12 12 0 0 0-1.3.9zm11.9-.1l-.8.1c-.3.1-.5.2-.6.4h.6l.8-.1zm-13.5 1.8a7.6 7.6 0 0 0 2.1-.2c.5-.2.8-.6.8-1.1h-.2l-1 .4-1 .4-.9.5zm13.7-.4l-1.5.3c-.5.3-.9.5-1.1.9l1.2-.1a14.4 14.4 0 0 1 1.4-.2zm-11.3 1.5l.3-.2a1 1 0 0 0 .2-.3c0-.2 0-.3-.2-.4a.7.7 0 0 0-.4 0h-.2c-.3 0-.9 0-1.8.3-1 .2-1.5.4-1.7.6zm8.7.7a19 19 0 0 0 1.4-.1l1.3-.1-.1-.2h-3.2l.4.4h.2zM131 6.1a30 30 0 0 0 0-1.7l-.1-1.1c0-.3.1-.5.4-.6h2.7c.4 0 .7.2.8.7l.2 2v1.4a.4.4 0 0 1 0 .3h-.6c-.4 0-.6 0-.8.2-.1-.2-.5-.2-1.1-.2h-1.2l-.3-.3zm1.4-2.7c-.5 0-.7.2-.7.4s0 .4.2.6l1-1zm1.2 0c-.2 0-.4.2-.5.5-.2.3-.2.5-.2.7v.2l.7-.3c.3-.1.5-.3.5-.4a.8.8 0 0 0-.1-.4l-.4-.2zM132 5l.2.2.2-.1v-.4h-.2l-.2.3zm2 .2a.4.4 0 0 0-.1-.1 1.6 1.6 0 0 0-.2-.1 8 8 0 0 0-.7.3 6.8 6.8 0 0 1-1 .3v.7h2zm1 15.4a25.5 25.5 0 0 0 .2 3l.2 4a1 1 0 0 1-.1.5l-.3.2a39.2 39.2 0 0 1-4.8-.5v-.3a.8.8 0 0 0 .1-.3 232.2 232.2 0 0 1 .6-7.3l-.1-1.7a48.5 48.5 0 0 1 .1-4c0-.6 0-1.4-.2-2.5l.1-.3-.2-.2-.2-.3.4-.4c.1-.1.3-.3.5-.3l.8-.1h2.5c.2 0 .3.1.4.5l.1 1.8c0 .6 0 1.1.2 1.6l-.1 1.7c-.2 1.9-.2 3.5-.2 4.9zm-3.6-9.7l.2.8c0 .3.1.5.2.5.2 0 .6-.3 1.1-.7l.4-.3.5-.3zm2.7.4c-.2 0-.6.2-1.2.7a7 7 0 0 0-1 .8 15.3 15.3 0 0 0 2.2-.6zm-2.3 3c.5 0 1.2-.6 2.3-1.8-.5 0-1 .2-1.6.4-.6.2-.9.3-.9.5 0 .6 0 .8.2.8zm2.5-1.2c-.7.2-1.4.8-2 1.6l1.8-.7c.1 0 .2-.2.2-.7zm-2.6 2.7l1.1-.3c.4-.3.8-.5 1-.8h-.2c-.5 0-.9 0-1.3.3-.4.2-.6.5-.6.8zm2.6-.8c-.5.1-1 .4-1.5.7-.5.3-.9.6-1 .9h.1a6 6 0 0 1 .9-.3 6 6 0 0 1 1.3-.2zm-2.6 2v.9l.2.4 1.1-.9c.6-.2 1-.5 1.1-.8h-.2l-1.2.2-1 .2zm1 1.5a9.9 9.9 0 0 0 1.6-.3c-.2-.3-.4-.5-.6-.5a1 1 0 0 0-.7.3l-.3.5zm-.8.3l-.2.6v.8h.2l1-.5 1.2-.9a1 1 0 0 0-.1-.1H133a3 3 0 0 1-.7.2 7.2 7.2 0 0 1-.5-.1zm.5 1.9c.5 0 1-.1 1.4-.4.4-.2.6-.6.6-1l-2 1.2-.2.2zm1 0l-1.8.8.1.5c.8-.4 1.4-.8 1.8-1.3zm-1.5 2.1c1.6 0 2.4-.7 2.4-2-.2 0-.7.3-1.4 1-.7.5-1 .9-1 1zm1.6 0l-1.1.3c-.5 0-.8.2-.8.3v1.1a27 27 0 0 0 2.2-1.6zm-1.4 2.2c.2 0 .6 0 1-.2l1-.3v-.8l-.1-.3-.8.6-1.1.8zm-.7 1v.4c.2-.3.5-.6 1-.8l.6-.3-.1-.2-.6.3c-.3 0-.5.1-.7.3l-.2.4zm2.7-.9c-.1.3-.5.5-1.2.9a3 3 0 0 0-1.3.9l1.7-.3c.7-.2 1.1-.4 1.1-.6zm-.5 2.3c.3 0 .6 0 .8-.2l.2-.6a2.5 2.5 0 0 0-1.6.6l.6.2zm-14.6-4a27.4 27.4 0 0 1-.2 3l.1.6.1.7-.1.5-.3.1-.4.1a41.5 41.5 0 0 1-5 0l-.1-.6a15.4 15.4 0 0 1 .1-1.8l.1-1.9c0-1.1 0-2.3-.2-3.6l-.2-2.3a59.1 59.1 0 0 1-.4-6 98.4 98.4 0 0 1 .1-6V4.7l-.1-1.1.1-1c0-.3 0-.7-.2-1 .1-.2.5-.3 1-.3a19 19 0 0 1 2.2 0l1.5.5.2 2-.1 3.5a108.8 108.8 0 0 0-.1 3.6l-.1 1.3a8 8 0 0 0-.1.8v1.2l.2.8c.4-.3 1-1 1.7-2a15.5 15.5 0 0 1 2-2.4 3.2 3.2 0 0 1 2.3-.9l2.2.3.9.1a8.3 8.3 0 0 0 2 .1l.1.2v.3h-.1l-.2.1-.8.8c-.3.2-.6.7-1 1.2l-1 1.4a23.6 23.6 0 0 0-2.8 2.9c-1 1.2-1.5 1.9-1.5 2.2l.1.4 2 1.8 1 1.7 2.6 2.9.9.8c.5.5.7.9.7 1l-.2.2-.1.2h-1c-.8 0-2.1 0-3.8.3-.3 0-.5 0-.6-.2a2.8 2.8 0 0 1-.4-.5l-1-1.6a7.7 7.7 0 0 1-.8-1.1 21 21 0 0 0-.6-1.3l-.7-.7zm-5.9-21c.2.1.2.3.2.7v.3l1.3-1h-1zm2.7 0l-.6.3c-.3.1-.4.3-.4.5l1.5-.1v-.1c0-.4-.1-.5-.5-.5zm-2.5 2c.2.1.2.3.2.5l.1.4.5-.2.5-.6.6-.5c.2-.2.4-.2.6-.2h-.3a4 4 0 0 0-1 .1c-.5.1-.8.3-.9.5l-.2-.2zm2.5-.2l-.7.6a5 5 0 0 0-1 1 .7.7 0 0 0 .5-.3l1.5-.5v-.8l-.3.2zm-2.5 2.6v.2l.2.3v.1a7.5 7.5 0 0 0 2.7-1.9l-1.7.5c-.8.3-1.2.6-1.2.8zm.5 2.5s.5-.2 1.2-.8l1-1h-.2l.3-1.2a1 1 0 0 0-.6.2l-.7.6c-.4.5-.8.8-1.2 1v1.2zm2.2-.6c-.3 0-.7.2-1 .6a3 3 0 0 1-1 .5h.3l1-.1c.5-.1.7-.2.7-.3zm-2.7 2.6v.3l.1.4c.1-.2.5-.5 1.2-.8a10 10 0 0 0 1-.8c.3-.2.4-.4.4-.6l-.3.1v-.1a4 4 0 0 1-1.7.5l-.6.1zm9.7-.6c-.3 0-.7 0-1 .2-.5.1-.6.3-.6.5l2-.5c0-.2-.1-.2-.4-.2zm-7.8.5a4.4 4.4 0 0 0-1 .9h-.1c.3 0 .6 0 1-.2l.4-.2h.6v-.8l-.4.1a2.2 2.2 0 0 1-.5.2zm9-.2l-1.3.3c-.8.1-1.2.2-1.2.4v.2l1.4-.3 2.4-.4a4.2 4.2 0 0 0-1.3-.2zm-1.2 3.3a38 38 0 0 1-2.5 1l-1.1.4-1.5.5-.8.5c.7 0 1.5 0 2.5-.3l.8-.1a6.5 6.5 0 0 0 2.4-1c.5-.3 1.1-.9 1.8-1.7a15.5 15.5 0 0 1 2-2l-.2-.1h-.1l-4 1.4h-.1l-.2.2h1l.8-.2v.5c0 .1 0 .2-.4.3l-.8.4h.2a.3.3 0 0 1 .2.2zm-9.6-.4l.9-.6A6.8 6.8 0 0 0 116 12c-1.1.4-2 .6-2.6.6v.7zm6.4-.9l.2.3v.1l.1.1c.3 0 .6-.3 1-.5a10.5 10.5 0 0 1 3-1h-1c-.7 0-1.4.1-2 .3-.7.1-1.1.4-1.3.7zm-3.8-.2a3.3 3.3 0 0 0-1 .6 9.7 9.7 0 0 0-1.4 1.3l.9-.4.5-.1c.4-.2.7-.3.8-.5.1-.1.2-.4.2-1zm3.6 1c-.3.2-.7.7-1 1.2l2.7-.9a6 6 0 0 0 1.6-.7 8.4 8.4 0 0 1-2.6.5h-.5zm-3.8.4l-1.2.5c-.7.2-1 .4-1 .5v1l1.5-1c.5-.4.7-.6.7-.8zm2.2 1.5a30 30 0 0 0 2.8-.8l-2.8.6zm-2.2-.4c-.2 0-.4.1-.8.5l-.7.8a5.9 5.9 0 0 1 1.5-.6zm-2 2v.6l.2.4 1.8-1.6v-.4l-.8.2-.9.4c-.2.1-.3.2-.3.4zm7.9-.7a6 6 0 0 0-2.4.8c-1 .3-1.8.7-2.6 1.2a8.2 8.2 0 0 0-2.1 1.8c.8-.5 2-1 3.4-1.6.2 0 .3-.1.3-.2l.1-.3.3-.1v.3c.2-.2.6-.3 1.1-.3.5 0 .8-.2 1.1-.3.3-.2.5-.6.8-1.3zm-4.4.6c.3 0 .5 0 .6.2a5 5 0 0 0 1.4-.5h-1.2c-.5 0-1 0-1.1.3zm-.7 0c-.3 0-.6 0-.8.2a3.5 3.5 0 0 0-.7.5l.1.1c.2 0 .5 0 .8-.3a10 10 0 0 1 .6-.3zm-1.6 1.1c-.3 0-.5.2-.6.3a.8.8 0 0 0-.2.6v.9a3 3 0 0 1 1-1l.7-.5a.8.8 0 0 0 .2-.6c-.3 0-.7.3-1.2.7zm3.5 1.2h1V19zm-4.2 2.3c.2-.4.6-.7 1.2-1l.7-.5c.3-.1.4-.3.6-.5a4.6 4.6 0 0 0-1 .3l-.6.3-1 .2zm4.5-1.8a5 5 0 0 0-4 1.8h.2l2.2-.7 2.3-1zm0 1h.4l.1.1.2.1c.2 0 .4 0 .6-.2l.7-.2-.3-.3-.3-.1a2 2 0 0 0-.8.2l-.6.4zm-.2.6c0 .1 0 .3.2.4l.5.2a3 3 0 0 0 1-.4c.6-.2.8-.5.8-.7-.3 0-.7 0-1.2.2a5.1 5.1 0 0 1-1.3.3zm-1.5 1.8v-.2l-.8.4a3.7 3.7 0 0 1-1.3.5h-.4c0-.4.2-.7.6-1a24.6 24.6 0 0 1 2-1.6v-.2l-1.7.7-1.2.6v2.7zm4.4-1.8l-1 .4c-.5.2-.8.4-.9.6h1.4l1.3-.1-.6-.8zm-5 4.9l-1.5 1h3v-1.8a15 15 0 0 0 .2-1.8 5 5 0 0 0-.5-2l-1 .5a14 14 0 0 0-1 .7 2 2 0 0 0-.4.5l2-1c.2 0 .3.1.3.3l.1.3c0 .2-.4.7-1.3 1.3-1 .6-1.4 1-1.5 1.1h1.7a1 1 0 0 1 .5.3c0 .2-.2.2-.4.2h-.4l-.4-.2c-.4 0-.8.1-1.2.4-.5.2-.7.5-.7.8 0 .1 0 .2.2.2l1-.6.5-.3.5-.2h.1l.2.3zm5.2-3.8h-1c-.5.2-.7.3-.7.5 0 0 0 .2.2.2l.3.2.8-.3c.3-.2.4-.4.4-.6zm.8.4l-.8.4-.7.4a.5.5 0 0 0 .3 0c.3 0 .6 0 1-.2.4 0 .6-.2.7-.2a.7.7 0 0 1-.2-.2c0-.1-.1-.2-.3-.2zm.9.7c-.3 0-.7 0-1.3.2a5 5 0 0 1-1.3.2l.3.6.3.5c.2 0 .6-.2 1.1-.6l.9-.9zm1 1.4a2 2 0 0 1-.4-.4l-.1-.3v-.1l-1.6.8zm-.4.3a.3.3 0 0 0-.1-.1.4.4 0 0 0-.2-.1c-1.1 0-1.8.2-2 .5l.6.6zm-1.4 1.7c0 .1.1.2.3.2l1.1-.4.9-.4v-.2h-.7l.4-.3.6-.2a1 1 0 0 0-.6-.1c-.1 0-.4 0-.7.2l-.6.4h.6v.2c-.9.3-1.3.5-1.3.6zm2.7-.5c-1 .5-1.6.9-1.7 1.1h.8a4.4 4.4 0 0 1 1.6 0h.9a2.6 2.6 0 0 0-.7-.7l-.9-.3zm-26.7 1.6l.2-1.3c.2-.7.2-1.3.2-1.8a79.6 79.6 0 0 0-.2-7.2v-1.5a84.7 84.7 0 0 1-.3-5.4s0-.2.2-.3a.7.7 0 0 1 .4-.2l1 .1a14.2 14.2 0 0 0 3 0l.8.4.5 1h.1a.5.5 0 0 0 .2 0h.1l4.7-1.4c.6 0 .9.2.9.6a51.9 51.9 0 0 0-.3 2.2l-.3 1.7c0 .3-.2.5-.3.5-.2 0-.4 0-.7-.2a2.3 2.3 0 0 0-.9-.2 3.5 3.5 0 0 0-2.2.8 2.4 2.4 0 0 0-1 2V19a19.4 19.4 0 0 0-.2 2.5 50.2 50.2 0 0 0 .4 6.5c0 1-.1 1.4-.4 1.4h-3.8l-1.7-.4-.2-.4a1.1 1.1 0 0 1-.2-.5zm.9-16.5v.7c.2.1.3.4.3.7l.9-.2 2-.7c.5-.2.7-.4.7-.7 0-.1 0-.2-.2-.2-.4 0-1 0-1.8.2l-2 .2zm7.7 1c0 .2-.2.4-.8.7l-.8.5h.2l3.3-1.7.3-.6v-.2a5.5 5.5 0 0 0-2.8 1h.2a.8.8 0 0 1 .3 0l.1.3zm-1.4-.2c-.6.2-1 .5-1.4.9-.3.3-.5.6-.6 1l-.3.4.8-.7 1.6-1.4v-.2zm-4.9 2l1-.3c.5-.1.9-.3 1.1-.5.3-.3.4-.6.4-1-.3.2-1.2.5-2.5.8a6 6 0 0 0-1.1.4zm2 .6c-1.8.7-2.9 1.5-3.1 2.2h.6c2 0 3.2-.2 3.7-.6l.5-.6.6-.6a2.7 2.7 0 0 1 1.4-.6h.6c.6 0 1 0 1.3-.2.3 0 .4-.3.5-.6V13c-.3 0-1 .3-2 .8-.9.4-1.5.8-1.9 1.1v-.2c-.2 0-.4.2-.7.6l-.7.6a1 1 0 0 1-.6.2c-.3 0-.4 0-.4-.2l.2-.3c.2 0 .3-.2.3-.3l-.3-.1zm-3.3.3v.4l.2.4 2.7-1.5-.8.2-.8.3-.8.1-.5.1zm.2 5.3v.8l.2.8c.2 0 .4 0 .6-.2a6 6 0 0 0 .6-.4l.8-.4h-.2l-1.5.1c-.2 0-.2-.2-.2-.3 0 0 .5-.5 1.6-1.2l1-.9a7.8 7.8 0 0 1-1.5 0h-1c0-.2.3-.5.9-.8h-.2l1.6-.3c.4-.1.8-.3 1-.6l-2.3.4-1 .2h-.3a35.2 35.2 0 0 0-.1 2.8zm3.9-2.8c-.5 0-1.2.2-2 .7h1l.7-.1c.2-.1.3-.3.3-.6zm-.4 6.5c0 .2-.1.4-.3.5l-.8.4-.4.3a1 1 0 0 0-.4.3 10 10 0 0 0 2-.5l.2-.8V20l-.2-.8-1.1.8-.8.6h1.1c.1 0 .2.1.2.4 0 .2-.1.4-.4.5a7 7 0 0 1-1 .6c-.5.3-.8.4-.9.6h1c.4-.2.8-.2 1.1-.2.4 0 .6.1.6.3 0 .3-.1.5-.4.7l-1 .5-1 .4v.2a4.8 4.8 0 0 1 2-.5l.4.1v.2zm-1.1-1.6l-1.3.2-1 .4.1.5.4.2 1-.5a4 4 0 0 0 1-.6.6.6 0 0 0 0-.1.3.3 0 0 0-.2 0zm-2.4 5c0 .5.8.8 2.6.8h1.3v-2a.4.4 0 0 0 0-.2h-.2-.3a.7.7 0 0 0-.3.2l.2.1.1.2v.3a1 1 0 0 0 0 .2l-.6.2-1.1.1-1 .2-.4-.1c.1-.2.3-.4.6-.5l.7-.4.9-.4c.2 0 .3-.2.5-.5l-2 .3h-.5l.3-.6.7-.4.7-.5-1.9.3-.2 1.1-.1 1.6zm-5.2-11.3c.6 1.5.9 3 .9 4.7a7.6 7.6 0 0 1-.6 3.2c-.4.9-1 1.6-1.8 2.1-.8.6-1.9 1-3.2 1.6l-.7.3a4.5 4.5 0 0 1-.7.2 9.7 9.7 0 0 1-3.7-.3 25.5 25.5 0 0 1-3-1.2l-1.1-.4a9.1 9.1 0 0 1-1.4-.5c-.4-.3-.9-.7-1.4-1.4a13 13 0 0 1-1.2-2.2 5 5 0 0 1-.5-2c0-1.2.1-2.2.4-2.9.3-.7.8-1.7 1.7-3 1.3-2.6 3.7-4 7.2-4.5h.6l1 .1c.4 0 .7.2 1 .3l1 .3a6 6 0 0 1 3.3 1.9c.8.8 1.5 2 2.2 3.7zm-8-5.3c-.2 0-.3.2-.3.7v.1h.2l1.7-.3a2.3 2.3 0 0 0-.8-.3l-.8-.2zm-2.7 0c-1.1.3-1.9.6-2.4 1 .5 0 1 0 1.5-.2.4-.1.8-.4 1-.7zm-3.1 4.3a8.9 8.9 0 0 0-1.6.3c-.5.1-.8.4-1 .7a7.3 7.3 0 0 1 3.3-.8c.2 0 .3 0 .4.2a.8.8 0 0 0-.3.3.8.8 0 0 1-.2.3l-2.6 1H80a4.5 4.5 0 0 0 1.4-.4c.3-.2.6-.5.8-1 0-.3.2-.6.7-1 .5-.5 1.1-1 1.8-1.3a3.8 3.8 0 0 1 1.6-.5 5.9 5.9 0 0 0 1.6.5 8 8 0 0 0 1.8-1.3h-.5a.4.4 0 0 1 0-.3.8.8 0 0 1 .5-.2.5.5 0 0 0-.2 0 .4.4 0 0 0-.2-.1l-.3.2-.3.3a.5.5 0 0 1 .1.2c0 .3-.4.5-1.4.5h-.2l-.3-.1.5-.6a24.5 24.5 0 0 0-5.2 2l-.4.3a1 1 0 0 0-.1.4c0 .2 0 .3-.2.3zm.6-2.7a2 2 0 0 0-1.2.5l-1 1-.4 1.2 1.6-.4.2-.4.3-.3 2.9-1.1v-.2c0-.1 0-.2.2-.3l.8-.3a3 3 0 0 0 .4 0l.5-.3h-.2a3 3 0 0 0-1.3.3l-.8.4H83l-.4.1.1.2h-.4v-.4h-.1l-.7.6c-.4.4-1 .5-1.8.5l.6-.4.4-.2c.4-.1.7-.3.7-.5zm9.8 0c0-.2-.1-.3-.5-.3-.2 0-.5.1-.9.4a6 6 0 0 0-.8.7h.1a28.6 28.6 0 0 0 2.1-.8zm.6.4l-1.5 1.2h-.1l-.4.2a.8.8 0 0 1-.5.2c0-.2.3-.4.8-.7l.7-.5v-.1a33.7 33.7 0 0 0-2.1.8l.5.8.6 1a11 11 0 0 1 1.9-1.2v.4c-.2 0-.3 0-.5.2a5.5 5.5 0 0 0-.7.7l.9-.3a9 9 0 0 0 1-.4v-.1l.6.1a.4.4 0 0 0 0-.2c0-.2-.2-.3-.5-.4a1.6 1.6 0 0 1-.5 0v-.3l.2-.3-.6.1a1.5 1.5 0 0 1-.5.2h-.4l1.5-.6zm-1 8.5l1.8-1.3h-.2l-.9.3-.8.2h-.1a.4.4 0 0 1 0-.2c0-.2 0-.4.3-.6l.9-.7.8-.7h-.1l-2 .8-.3 1-.4 1.2a8.4 8.4 0 0 1-1.1 1.1h-.2c.4-.3.7-.6.8-1.1l.2-1.7a10.2 10.2 0 0 0-1-4.2c-.4-.6-.8-1-1.3-1a1 1 0 0 1-.5.1s-.3 0-.5-.2l-.6-.3c-.4 0-.8.2-1.3.6l-1.2 1.3c-.3.5-.5.9-.5 1.2v.3l-.1.7-.2 1.2c0 1.2.4 2.2 1 3a3.4 3.4 0 0 0 2.8 1.1c1.5 0 2.8-.7 4-2a1 1 0 0 0-.2.4zm2.6-5v-.5c0-.3 0-.4-.3-.4l-.9.4a8 8 0 0 0-1 .7l-1 .7c.3 0 .5 0 .8-.2l.5-.2a3.4 3.4 0 0 1 1.6-.6zM78 17l-.2.4L79 17a10.8 10.8 0 0 0 1.5-.7 12.7 12.7 0 0 0-2.5.7zm15.8 0l-.4.2a1 1 0 0 0-.3.2 34 34 0 0 1-2.1 1.3l-.2.2 3-1zm-3.4 1.4c.4 0 .8-.2 1.3-.5l1-.8h-.3l-1.7.8c-.2 0-.3.3-.3.5zM80 17.7c-.9 0-1.6.1-2 .3-.5.1-.7.5-.7 1.2a77.1 77.1 0 0 0 4-1.4h-1zm.1 1.2c.2 0 .5 0 .8-.2.4 0 .5-.2.5-.4l-.6.2c-.4 0-.7.2-1 .3zm13.8-.5c-.2 0-.7.4-1.6 1.1-.2.3-.6.5-1 .8a5.7 5.7 0 0 0 1.8-.7c.7-.4 1-.8 1-1.2zm-16.8 2.2v.3c.5-.2 1-.5 1.8-.7a6.7 6.7 0 0 0 2.1-1c-.7 0-1.5 0-2.4.3-1 .3-1.5.6-1.5 1.1zm4.3-1c-.2.2-.7.4-1.6.7a28.1 28.1 0 0 0-1.7.7c-.2 0-.3.2-.3.2L79 21a6.6 6.6 0 0 0 1.7-.4c.4-.2.6-.5.7-1zm13.2.9l-.2-.7c-.2 0-.3 0-.5.2l-.5.5-.8.4v.2a3 3 0 0 1 1.5-.5zm0 .2c-.6.5-1.4 1-2.5 1.5l-1.6 1-.7.3h.2l2-.7a31.8 31.8 0 0 0 2.4-1.1l.1-.2v-.3zm-17.2 1v.4h.4c.2 0 1-.2 2.1-.7l.4-.2.3-.1v-.2h-.2l-.8.3a8.1 8.1 0 0 0-2.2.6zm4-.5l-1.6.5-1 .5h.2c.3 0 .9 0 1.5-.2s1-.2 1-.4a.5.5 0 0 0 0-.3l-.2-.1zm-3 2c.2 0 .6 0 1.5-.4l1.7-.6c-1.1 0-2.3.2-3.5.6l.1.3.3.2zm12.7-1a3.3 3.3 0 0 0-1.3.5c-.5.2-.8.5-.8.9l.4-.3.5-.3.6-.3.6-.5zm1.4 2.5A3.6 3.6 0 0 0 94 24c.4-.4.5-.8.5-1.3l-2 1.1a57.7 57.7 0 0 0-2.3 1.7h.3l2.1-1zm-13-1.2c1 0 2-.2 2.7-.5a.5.5 0 0 0 0-.2l-.2-.1-1.7.4H80c-.3 0-.5 0-.5.3zm7.7 1.9c.2 0 .2.1.2.3v.1l-1.4.6a4.9 4.9 0 0 0 1.9-.3 8.3 8.3 0 0 0 1.8-1 38.3 38.3 0 0 1 3.6-2.4c-.4 0-.8 0-1.2.2l-1.5.8-1.4.7a2.8 2.8 0 0 1-1.1.3v-.3l-1 .2c-.5.2-.8.3-.8.5 0 0-.2-.2-.7-.3l-.9-.3c0 .3.2.5.6.6h.7s-.3.3-1 .6l-.8.5 1.4-.4 1.6-.4zm-8-.7l1.4-.4c.8-.3 1.2-.6 1.3-.7l-.3-.1c-1.2.3-2.1.5-2.8.5v.4l.4.3zM83 24l-.7.1c-.2 0-.3.1-.3.2h.3a4.1 4.1 0 0 0 1.2-.1.8.8 0 0 0-.5-.2zm0 1.1h.8l.3-.1a.6.6 0 0 0 .2-.4zm9 1.4c.3 0 .7-.3 1.1-.7.5-.4.7-.8.7-1v-.2a13 13 0 0 1-2.2 1c-.8.4-1.3.5-1.5.5-.2.3-.7.6-1.5.9a5.8 5.8 0 0 0-1.5.8l.1.1a.4.4 0 0 0 .2 0l.8-.1 1.4-.3 2.4-1zm-12.3-1.2c0 .2.2.3.4.4l.8.2 2-1-.3-.1zm1.4.8l.5.3.9.1.8-.2 1.2-.6c.4-.2.6-.4.6-.5a7 7 0 0 1-2.7.7l-.6.1-.7.1zm2 .8l.3.1c.2 0 .6 0 1-.3a13 13 0 0 1 1-.4zm1.5.6l1.3.2a11.7 11.7 0 0 0 2.6-1.3 9.5 9.5 0 0 0-4 1.1zM75 6a9.2 9.2 0 0 1-.4 3c-.4 1-.5 2.2-.6 3.4a92.5 92.5 0 0 1-1.9 8.4l-.5 2-.5 1.6a55.5 55.5 0 0 0-1 3c-.1.7-.3 1.2-.5 1.4-.3.2-.6.3-1.1.3-1.2 0-2.1-.1-3-.3a2.7 2.7 0 0 1-1.7-1.4L62 22.7c0-.3 0-.6-.2-1l-.4-.8-.2-.5c-.6-1.3-1-2.2-1-2.7l.1-.3-.7-2.7-.2-.2a52.6 52.6 0 0 1-1.5 4.2l-1.1 2.6-.9 2.2-1 3-.3.4-.1.5a4.3 4.3 0 0 1-.3 1l-.4.2-.3-.1a.8.8 0 0 0-.3-.2h-1a6 6 0 0 1-1.6-.3c-.4-.1-.7-.5-.9-1a7.8 7.8 0 0 0-.5-1.7 28.8 28.8 0 0 0-.4-1 16.7 16.7 0 0 1-1.2-3.7 18 18 0 0 0-.8-2.9v-.2l-.7-2-.8-2.2a6.1 6.1 0 0 1-.3-1.8v-.3a22 22 0 0 0-1.7-5v-.5a1 1 0 0 1-.1-.3c0-.5.4-.8 1.1-.8a15 15 0 0 1 2.4.2l.4-.2c.1-.2.3-.3.4-.3.2 0 .3.1.4.3l.2.5c0 .2 0 .3-.2.4a4.4 4.4 0 0 0 .8 2.2 38.4 38.4 0 0 1 2.2 6.4l.7 2.2c.2.7.5 1.3.9 1.8l.4-1a18.8 18.8 0 0 0 1.1-3.5l.7-2.4a9.9 9.9 0 0 1 1.1-2l.7-1.7c.4-1.1.9-2 1.2-2.5.4-.5.9-.8 1.6-.8.5 0 .8.1 1 .4l.9 2 .3 1 .7 1.6.8 2.4a43.8 43.8 0 0 0 1.7 4.5c.5 1 1 1.6 1.6 1.7.2 0 .4-.2.6-.6l.3-1.3.2-1 .7-2.2.3-1 .2-1.2c.1-.7.2-1.2.4-1.5a10.7 10.7 0 0 0 1.2-3.5l.2-.8.5-.1h.4c.3 0 .6 0 .7-.2h2.6l.3.4zm-1.8-1c-.7 0-1.2 0-1.6.2-.4.1-.6.5-.6 1 .3-.2.8-.5 1.4-.6l.6-.3.2-.4zM57.5 8l.3-.1h.4c.2 0 .3 0 .3-.3h2.3a9.5 9.5 0 0 1-.2-1 3 3 0 0 0-.5-1.2 1 1 0 0 0-.8-.4l-1 .2c.5.3 1 .4 1.2.4h.2l.2.2c.2.2.2.3.2.5l-.6.6-1 .4-.2-.1c0-.1 0-.2.2-.3l.6-.4c.3 0 .4-.2.4-.2V6a1.7 1.7 0 0 0-.1-.1l-1-.3h-.1a12.1 12.1 0 0 0-.5 1l-.4.6.6-.3v.2a.4.4 0 0 1 0 .3 1.3 1.3 0 0 1-.3.2l-.3.1zm16.7-.6v-.6-.4a3 3 0 0 1 0-.7l.2-.7h-.6l-.2.3c0 .2-.3.4-1 .6-.5.1-.8.3-.9.4l.4.3.2-.2.2-.1h.1l.3.1h.2v-.1l.4.1c0 .2-.2.4-.5.5l-1.2.3c-.6.1-1 .3-1.1.4l1.1-.1a17 17 0 0 1 1.7 0v.2c0 .4-.1.6-.5.6v-.2c-.2.2-.5.3-.9.3l-.7.3a.8.8 0 0 0-.4.3h.9l1-.1c.3 0 .4 0 .4.3l-1.4.7a5.8 5.8 0 0 1-1.8.7H70l-.2-.1.6-.4a9.7 9.7 0 0 1 1.1-.5l.8-.3-1.5.1a6.5 6.5 0 0 1-.7 0H69.8a.2.2 0 0 0-.1 0 64.3 64.3 0 0 0-.8 3.8h1l.8-.4a1 1 0 0 0 0-.1l.1-.2.7-.2c.4 0 .6-.1.8-.3-.3 0-.8 0-1.5.2l-1.4.1c0-.2.1-.4.3-.5l.7-.4.6-.2 1.7-.9-.8.1-.8.1.3-.3a6.9 6.9 0 0 1 1.3-.3h.3l.3.1c.2 0 .4-.3.6-1l.3-1.6zM45.7 5.8l.5-.1.6-.2-.6-.2s-.2 0-.2.2a.3.3 0 0 1-.3 0zM44 5.4l.6 1v.2l.2-.6-.1-.2c.2 0 .4-.2.6-.4zm1.7 4.1c0 .1 0 .2.2.3l.3-.3.4-.4.5-.2c0 .3-.1.5-.5.8a6 6 0 0 0-.4.4l.2.1c.3 0 .7 0 1.2-.2a7 7 0 0 0 1-.3l-.1-.6-.3-.7a.8.8 0 0 0-.4.2.9.9 0 0 0-.3.3v-.6c0-.1.1-.2.3-.2h.2c0-.4-.3-1-.5-1.5l-.4-.8a9.9 9.9 0 0 0-1.7 1.6l.9-.2c.4-.2.7-.2.9-.2h.1l.2.2-.7.3h-1V8h-.1a.4.4 0 0 0-.1 0l-.3.1.3.4.6-.3.5-.4.6-.1a5.6 5.6 0 0 0-1 .8h.5l-.1.3-.6.3c-.2.1-.4.2-.4.4zm.2-2.8a.3.3 0 0 1-.2-.3h-.5l-.4.2v.2c0 .3 0 .5.2.5zm25.2 0c-.3 0-.5 0-.5.2l.1.3.2-.1a.8.8 0 0 1 .4-.1v.1a.2.2 0 0 0 .2 0 .3.3 0 0 0 0-.2c0-.2 0-.2-.4-.2zM70 8.9a29.5 29.5 0 0 1 1.8-.6l1-.5h-2.4zm-9.2-1a1 1 0 0 1-.3.4l-.8.5a6.6 6.6 0 0 1-.5.4l-.7.7h.1l1.6-.2c.8-.2 1.2-.3 1.2-.5zm-2.9.7l-.6.2a1 1 0 0 0-.5.2l-.3.6h.1L58 9a5.4 5.4 0 0 0 1.4-.9 3 3 0 0 0-1 .3l-.5.2zM55.5 12l-.3.8-.3 1 2.2-1.3 1.1-.5.2-.4.4-.2h.1l-.1.3 2.7-1.2c.2 0 .3-.3.3-.7-.5 0-1 0-1.7.3-.3.4-.9.8-1.7 1.3-.8.5-1.3.7-1.6.7l.8-.7h-.1l-.4.1-.3.1a.2.2 0 0 1-.2 0 .2.2 0 0 1 0-.1c0-.2 0-.3.2-.3l.6-.3c.7-.2 1-.4 1-.6h-.7a.5.5 0 0 0 0-.2.8.8 0 0 1 0-.2c0-.2 0-.3.2-.4.2-.2.3-.3.3-.6 0 .2-.2.3-.3.5l-.4.3-.2.3v.2l-.7.1c-.4 0-.6.2-.8.3l-.2.9.1.1h.5v.3l-.2.1-.3.1c-.1 0-.2 0-.2-.2zM47 14.8l.1.3c0 .1.1.2.3.2l.3-.1.4-.5c0-.2.2-.3.4-.3l.5-.3.4-.3a.4.4 0 0 0-.2 0 .8.8 0 0 1-.3.1h-.6l-.4.3V14v-.2l.5-.1h.2l1.2-.5a30.3 30.3 0 0 0-1.1-3.2 1 1 0 0 0-.2.2.7.7 0 0 0-.2.3c0 .2-.3.4-.6.7l-.7.5a.7.7 0 0 0-.1.5l.7-.4h.7l.6.1-.6.6.2.2-.6.4-.7.5-.3.5h.4a.9.9 0 0 1 .3-.1c0 .2-.1.3-.3.4-.2 0-.3.2-.3.4zm-1-4l.2.6.1.5c.4-.1.7-.4 1.1-.7.3-.3.5-.7.5-1l-1 .1.2.2zm27 2.9v-.8l.2-.7a8.4 8.4 0 0 0 .2-1.9.3.3 0 0 1 0 .1.4.4 0 0 1-.3.1.2.2 0 0 1-.1-.2c0 .3-.4.6-1 1a6.2 6.2 0 0 1-1.6.4 2 2 0 0 0 .5.4c.1 0 .4 0 .7-.2s.7-.2 1-.2c.2 0 .4.1.4.3l-1.2.7-1.4.6h1.1c.6 0 1 0 1.1.3l-.7.5a7 7 0 0 1-1 .3 9 9 0 0 0-1.2.4c-.2 0-.5.2-.6.5l1.2-.3 1.3-.2c.2 0 .3.1.3.4 0 .2-.6.6-1.8 1l-1 .7 1-.2.7-.1.3.1.2.3v-.4l.3.1.1.3c-.7.4-1.6.8-2.7 1.1h.3a79.2 79.2 0 0 0 2.8-.3c.1 0 .3-.4.4-1l.2-1zm-16.4.1c.5 0 .9 0 1.3-.3l1.4-1 1.8-1.3H61c-.2 0-.4 0-.6.2-.3.2-.5.2-.7.2l-1 1c-.3 0-.7.2-1.4.5l-1.3.7zm5.3-2.6h-.1l-.1.1.1.2h-.2a.9.9 0 0 0-.5.1l-.5.3-.4.3v.3l.6-.1c.4 0 .7 0 1-.2l.4-.3c0-.5-.1-.7-.3-.7zm-15.3 2.6l.9-.8.8-.8a.1.1 0 0 0 0-.1.1.1 0 0 0-.1 0 .8.8 0 0 0-.3 0 1 1 0 0 1-.5.2v.2h-.2c-.5 0-.7.1-.7.4a3 3 0 0 0 .1 1zM62 16.6l-.1.2a1 1 0 0 1-.4.1l-.3.3h.7c.3-.2.4-.3.4-.5a.6.6 0 0 0 0-.2h.1c.3 0 .6 0 .7-.2h-.4v-.2c.2 0 .4 0 .6-.2.2 0 .3-.2.3-.3 0-.4-.1-.7-.4-.8l-.3.6a4 4 0 0 1-.7.4l-1 .6c0-.2.1-.4.3-.5.1-.2.4-.3.7-.4.4-.2.7-.3.8-.5l-.4-.4h-.2l.7-.1-.1-.6a1.7 1.7 0 0 1-.2-.5v-.2l-.5.3-.4.3v-.2-.1l.2-.2H62l.3-.3c.2 0 .3-.2.3-.3l-.1-.2a.5.5 0 0 0-.2 0l-.5.1a2 2 0 0 1-.6.2l-.6.4-.4.4h.9a.7.7 0 0 1-.4.3c-.2 0-.3.1-.3.2l.1.4.3-.3.6-.3h.1c0 .2-.3.5-.5.7l-.4.4h.4l.2.3-.1.3a.8.8 0 0 0-.2.2l.2.7zm-2-3.4l.7-.4h-.3a.8.8 0 0 0-.4 0v.3zm8.8.3c-.3.3-.4.8-.4 1.5a2.5 2.5 0 0 1 .6-.3l2-.9v.1l.4-.3H70l-.2-.3v.3l-1 .2zm-21.2 3l.1.7.8-.6 1.2-.9a.8.8 0 0 1-.4 0v-.2-.3l.5-.1.4-.1a5.7 5.7 0 0 0-.4-1.4l-.7.6-1 .9c-.2.2-.4.5-.4.8a.6.6 0 0 0 .2-.1.7.7 0 0 1 .4-.1c0 .3-.1.5-.3.5h-.2c-.1 0-.2 0-.2.3zm7-1.7l-.2.8-.1.7.8-.4 1-.5-.1-.2a.4.4 0 0 1 0-.1c.3 0 .8-.1 1.4-.4s1-.6 1-.8l-1 .1-.6.2h-1a6.8 6.8 0 0 1-.8-.1l-.2.3-.2.4zm2.6 3.5l.3-.8a7.9 7.9 0 0 0 1.1-3.1c-.5.3-1 .6-1.2.9L55 16.4a3 3 0 0 0 .8-.1l.6-.2h.3v.2c0 .1-.4.2-1 .2l-1.3.2c-.3.1-.5.3-.5.5l-.9 2a3 3 0 0 0 .2 1l1-.4a1 1 0 0 0 .2.2l.1.2a1.2 1.2 0 0 1-.5-.2l-.4.3-.8.5-.1-.1-.1-.1c-.1 0-.5.2-1 .7l-1.3.8c.4 0 .9-.2 1.6-.5a5.1 5.1 0 0 1 1.6-.4h.2v.2a2 2 0 0 1-.8.3c0 .3-.2.6-.5.8-.4.2-.8.4-1.2.4l.7-.7.1.2.3-.2.3-.2v-.4a2.4 2.4 0 0 1-.7.4l-.9.2.2.2a7.7 7.7 0 0 0-.8.2c-.3.2-.6.2-.8.2l.2 1 .4 1 .7-.4.7-.6.1-.1v.1c0 .2 0 .4-.3.5l-.5.5.8-.4c.2 0 .4 0 .6-.2l.8-.4.7-.4c.2 0 .4 0 .4.3a1 1 0 0 1-.4.4H53l-.1-.2c-.2.3-.4.5-.8.6a4 4 0 0 1-1 .3v.3c.4 0 .9-.1 1.3-.4-.1.2-.4.4-1 .7-.6.3-.9.5-.9.8l1.6-.6 1.5-.3.3.1-.9.6-.1-.1a3.8 3.8 0 0 1-.7.8l1-.3.8-.4.7-1.7a35.7 35.7 0 0 1 1.4-2.8l-.7.4v-.5c.3 0 .6-.2.8-.6l.6-1.5.3-1zm4.8-3.6c0 .2-.2.3-.4.3h-.2zm-13.4 5.1l.1 1c0 .2.2.4.3.4.1 0 .3 0 .5-.2l.4-.4a1.6 1.6 0 0 1-.4 0l-.6-.1c0-.3.3-.6 1-1.1a23.9 23.9 0 0 1 1.6-1.4c-.3 0-.7.1-1 .3l-.8.4v-.3l.7-.3 1-.5-.2-.3-.2-.1-.4.1v-.4l-.6.1-.6.3v-.1-.3l.6-.2c.5 0 .7-.2.7-.4l-.1-.5a2.8 2.8 0 0 1-.2-.7 2 2 0 0 1-.6 1v-.3l-1 1-.4.3-.2.4.9-.5c0 .2 0 .4-.2.5l-.5.1-.5.1.3 1 1.7-1.3.2.3-.5.4a2 2 0 0 0-.7.6c.3 0 .4 0 .5.2l-.4.2-.3.1-.1.6zm19.3-2.5a1 1 0 0 1-.2.4c-.2.2-.2.4-.2.5l.4.1A4.4 4.4 0 0 1 69 18c.9-.3 1.5-.6 1.7-.9a4 4 0 0 0-.9.2 2.4 2.4 0 0 1-.9.1h-.5l-.2-.1.8-.7 1.2-.6 1-.5.2-.3-.6.3h-.4a6 6 0 0 0-.3-.1l-1 .4h-.5c-.1 0-.3 0-.3.2l-.4 1.4zm-11.1-1a.6.6 0 0 1 .2-.3h.4c.2 0 .3-.1.3-.3v.6l-1.8.9a.8.8 0 0 0-.4.1l-.3.3v-.1c0-.2 0-.4.2-.5l.7-.3.7-.4zm4.6 1.8c0 .2.2.3.4.3a20.4 20.4 0 0 0 1.9-1.3 2 2 0 0 1-.4 0L63 17l.5-.2c.3 0 .4-.2.4-.4l-1.2.4a4.8 4.8 0 0 0-1 .7l.5-.1.4-.2.1.1-.7.3c-.4.2-.6.4-.6.5zm.7.6a6 6 0 0 0 1.3-.4 8.5 8.5 0 0 0 1.3-.6c0-.1 0-.3-.2-.4-.2 0-.3-.2-.3-.3L63 18a5 5 0 0 1-1.3.7zm-7-.3h-1.3c0-.2 0-.4.3-.6.3-.2.5-.3.8-.3a1.2 1.2 0 0 1-.7.6H55.5zm-.7 1.4l-.1-.3.7-.2.7-.5.5-.5.7-.2v.2l-1 .7c-.6.3-1 .6-1 1a.3.3 0 0 0-.3-.2zm9.5 0a2.8 2.8 0 0 1-.5.4 4.3 4.3 0 0 0-.6.4.7.7 0 0 0-.1.5l1-.6.9-.7v-.4l.3-.4c0 .3.2.4.4.4 0-.2 0-.5-.2-.7a2.3 2.3 0 0 1 0-.6.5.5 0 0 0-.4.3 1 1 0 0 1-.2.3l-1 .8-.8.7 1-.6zm-1.8 0c0 .2 0 .3.2.3l.6-.5.6-.6.7-.6.1.2.2-.3H64l-1.2.4c-.5.3-.8.6-.8.9zm9.5 0l.3-.5.2-.7v-.3h-.2l-1.6 1.3-1.6.9-1.5.6v-.5c-.3 0-.8 0-1.5.3l-1.9.7c-.5.3-.8.6-.8.8 0 .2.1.3.3.3h.2c0-.2.6-.5 1.5-1l1.6-.6.2.1-2.6 1.3-.1.2h.3l.6-.1.6-.3.6-.2.7-.1v.1c0 .1-.4.3-1.4.6l-2.2.4.3 1 .1.4.3.6h.5l.3-.2.8-.3v.7h.3l-.1-.5a.7.7 0 0 1 .4-.1l.3.1a.3.3 0 0 0-.2.1.3.3 0 0 0-.1.2v.2h.2v.3a3.3 3.3 0 0 1 1.8-.5v.2l.6-.3.6-.2h.1v.4h-.1L67 26.4h.1l1.6-.3c.8-.3 1.2-.5 1.3-.7l.3-1 .2-.7.6-1.7a7 7 0 0 0 .4-2zm-4.3-1l-.3.7-.2.7c.5 0 1.1 0 1.8-.3.6-.1 1-.3 1-.5H69c.1-.2.4-.4.7-.5l.5-.2a.5.5 0 0 0 .3-.4l-1.6.2a8.7 8.7 0 0 0-1.7.2zm-15.5.2v-.3a1.3 1.3 0 0 0-.1-.3c-.5.2-1.1.7-1.9 1.7l1-.4c.7-.2 1-.5 1-.7zm4.3.5c.3 0 .4 0 .4.3l-.4.4-.7.4-.5.2a3.6 3.6 0 0 0-.9.4l-.1-.1 2.1-1.3h-.2-.3a.7.7 0 0 1-.3.2v-.2c0-.1 0-.2.3-.2l.6-.1zm9.5 0c-.2.3-.5.5-1 .7v.1c.2 0 .4 0 .7-.2l.4-.4zm-16.2 3.2l.3-.4.2-.4 1.2-.7.3-.4c0-.2.2-.3.3-.3h.1l.1-.4v-.3c-.2 0-.5.2-1.1.7l-1.3 1c.4 0 1-.3 1.6-.7 0 .3-.4.6-1 .8l-.4.2-.4.3V22.7zm1.9-3l-.6.3c-.2 0-.4.2-.5.3l.6-.1.5-.4zm13 .7c-.3 0-.4.1-.4.4l.1.1c.3-.1.4-.3.4-.5zm6.1.4l.3.1-.8.5-1.2.5c-.1 0-.2-.3-.2-.7l.5-.1v.2h.2l.3-.2c.2-.2.5-.3.8-.3zm-2 1.3l-.6.1c-.3 0-.5.2-.6.3l-.1-.1.3-.3c.3-.2.4-.4.5-.7h.3zm-17.7 1.3l.9-.4 1.7-.8 1-.2 1-.2c0 .2-.2.4-.4.5l-1 .4a5.1 5.1 0 0 0-1 .4l-.4.4a2.8 2.8 0 0 1-.6.3l.2-.3.3-.3v.2l.6-.6.5-.3-1.3.4c-.7.3-1 .5-1 .7a2.5 2.5 0 0 1-.8.3c-.1 0-.2-.1-.2-.3a.8.8 0 0 1 .1-.4l.2-.3.3.1v.2l-.1.2zm17.2-.1c.2 0 .4-.1.5-.3l.3-.5c.2-.2.8-.3 1.6-.3 0 .2-.3.4-1 .8l-1.5.7zM64 24s0-.2.2-.3l.4-.3.3-.1a3 3 0 0 0 1-.6c0 .1 0 .3-.2.4a2.5 2.5 0 0 1-.5.4 4 4 0 0 0-.5.3h.5c0 .3-.3.5-.8.5H64V24zm3.3-.5l-.6.3-.2-.2.2-.3v.1h.4a.7.7 0 0 1 .2-.1zm2.4.2c0 .2-.2.4-.5.5a7.1 7.1 0 0 1-1.7.6l.1-.2H67c0-.1 0-.2.2-.3l.2-.1h.4V24c0-.1.2-.2.7-.3l1-.3v.2a.6.6 0 0 0-.1.3zm-19.5 1.8v.2h.2c.2 0 .3 0 .4-.2l.2-.4-.5.2c-.2 0-.3.1-.3.2zm14 .1v.2a.5.5 0 0 0 .3 0h.3a.4.4 0 0 0 .2-.4c0 .2-.3.2-.7.2zm.4.7v.6l.4.2.7-.3.8-.7.3-.4-.6.2-.4.1.1-.3a.7.7 0 0 0 .2-.3l-.7.2.2.3c-.4.3-.8.4-1 .4zM51 27.5l.5-.5 1-1h-.2c-.2 0-.6 0-1 .2-.4 0-.7.2-.8.4 0 .2 0 .4.2.6 0 .2.2.3.3.3zm18.3 1a5.5 5.5 0 0 0 .5-2.3.5.5 0 0 0-.2 0 .4.4 0 0 1-.2.1c-.6 0-1.4.3-2.3.6l-1.3.4v.2l.5-.1.5-.1 1 .1c.4.1.6.3.6.6v.1a.5.5 0 0 1-.2.2h.5c.4 0 .6 0 .6.2zm-15.8-1c.3 0 .4-.3.4-.8-.2 0-.6 0-1 .4l-.2.1a.8.8 0 0 1-.4.1.3.3 0 0 1-.2 0l-.2-.1h-.1l-.1.3zm0 0" fill="#eeba00"/>
</svg>
