<svg xmlns="http://www.w3.org/2000/svg" viewBox="0 0 382 96">
  <path fill="#c10b26" d="M47.14 75.3C38 61 37.55 39.11 43.14 25.32a51.63 51.63 0 0 1 17.98-23A47.58 47.58 0 0 0 .5 48a47.58 47.58 0 0 0 64.21 44.5 53.84 53.84 0 0 1-17.53-17.23m15.59-1.3a69.3 69.3 0 0 0 14.38 11.6 48.16 48.16 0 0 0 11.7-13.07 29.45 29.45 0 0 1-18.6-13.04c-5.01-7.75-5.24-19.7-2.2-27.2a28.88 28.88 0 0 1 15.58-15.8A47.58 47.58 0 0 0 65.05 3.63a53.39 53.39 0 0 0-13.49 22.6c-4.08 13.14-1.12 34.98 11.17 47.72m9.89-41.2c-2.25 7.11-.6 19.06 6.1 26a32.97 32.97 0 0 0 12.74 8.6 47.2 47.2 0 0 0-7.34-50.3 27.99 27.99 0 0 0-11.5 15.65"/>
  <path fill="#3c3c3a" d="M346.67 61.07c0-7.87 5.77-11.8 17.35-11.8 4.12 0 8.42.26 13.03.74V45c0-6-4.72-8.99-14.16-8.99-4.2 0-8.5.64-12.92 1.95v-3.52a46.66 46.66 0 0 1 12.92-1.95c12.18 0 18.25 4.38 18.25 13.11v27.84h-2.48l-1.34-2.89a45.73 45.73 0 0 1-15.29 2.89c-10.27 0-15.36-4.12-15.36-12.36m17.35-8.32c-8.85 0-13.27 2.73-13.27 8.2 0 6 3.75 8.96 11.28 8.96a38 38 0 0 0 15.02-3.19V53.53c-4.42-.52-8.76-.74-13.03-.74m-29.08-31.25h-4.12v-3.86h4.12zm0 51.85h-4.12V32.48h4.12zm-27.9 0V32.48h2.91l.53 5.24c2.25-3.48 5.92-5.24 10.98-5.24v3.3c-4.87 0-8.32 1.72-10.34 5.17v32.48zm-48.19-12.36c0-7.87 5.81-11.8 17.39-11.8 4.08 0 8.43.26 13.03.75v-5.02c0-6-4.72-9-14.16-9-4.2 0-8.54.64-12.96 1.95V34.4a46.91 46.91 0 0 1 12.96-1.95c12.14 0 18.25 4.39 18.25 13.11V73.4h-2.51l-1.31-2.88c-5.4 1.9-10.5 2.88-15.29 2.88-10.26 0-15.36-4.12-15.36-12.36m17.35-8.32c-8.84 0-13.3 2.74-13.3 8.2 0 6 3.74 8.96 11.31 8.96 4.98 0 10-1.05 14.99-3.19V53.5c-4.39-.53-8.73-.75-13-.75m-29.11 20.6c0 9.9-6.3 14.84-18.85 14.84a42.33 42.33 0 0 1-13.41-1.95v-3.52a42.93 42.93 0 0 0 13.49 1.95c9.78 0 14.68-3.75 14.68-11.28v-1.95c-5.17 1.28-9.51 1.95-13.03 1.95-12.93 0-19.41-6.9-19.41-20.72 0-13.48 6.82-20.23 20.45-20.23 5.55 0 10.87.56 16.08 1.69zM243 37.05c-4.5-.64-8.62-.94-12.25-.94-10.8 0-16.19 5.51-16.19 16.49 0 11.24 5.17 16.86 15.47 16.86 3.75 0 8.06-.68 13-2.1zm-78.64 23.98c0-7.87 5.8-11.8 17.38-11.8 4.09 0 8.43.26 13 .75v-5.02c0-6-4.68-9-14.12-9-4.24 0-8.54.64-12.96 1.95V34.4a46.7 46.7 0 0 1 12.96-1.95c12.14 0 18.24 4.39 18.24 13.11V73.4h-2.5l-1.32-2.88c-5.4 1.9-10.49 2.88-15.28 2.88-10.27 0-15.4-4.12-15.4-12.36m17.38-8.32c-8.88 0-13.3 2.74-13.3 8.2 0 6 3.75 8.96 11.32 8.96 4.98 0 10-1.05 14.98-3.19V53.5c-4.42-.53-8.73-.75-13-.75m-39.26 20.6V32.52h2.92l.53 5.24c2.24-3.48 5.92-5.24 10.97-5.24v3.3c-4.87 0-8.31 1.72-10.34 5.16v32.49zm-30.08.23V30.53c0-9.93 5.1-14.87 15.28-14.87 3.34 0 6.37.52 9.1 1.57v3.49a24.39 24.39 0 0 0-9.14-1.54c-7.45 0-11.16 3-11.16 9.07v4.23h15.36V36h-15.36v37.47z"/>
</svg>
